SplineFontDB: 3.2
FontName: Basica-Bold
FullName: Basica
FamilyName: Basica
Weight: Bold
Copyright: 
Version: 1.000; ttfautohint (v1.8.2.53-6de2)
ItalicAngle: 0
UnderlinePosition: -113
UnderlineWidth: 50
Ascent: 819
Descent: 205
InvalidEm: 0
sfntRevision: 0x00010000
LayerCount: 2
Layer: 0 1 "Back" 1
Layer: 1 0 "Fore" 0
XUID: [1021 644 -1152176804 10069]
StyleMap: 0x0020
FSType: 0
OS2Version: 4
OS2_WeightWidthSlopeOnly: 0
OS2_UseTypoMetrics: 1
CreationTime: 1592915285
ModificationTime: 1614128511
PfmFamily: 81
TTFWeight: 700
TTFWidth: 5
LineGap: 0
VLineGap: 0
Panose: 0 0 0 0 0 0 0 0 0 0
OS2TypoAscent: 1035
OS2TypoAOffset: 0
OS2TypoDescent: -361
OS2TypoDOffset: 0
OS2TypoLinegap: 0
OS2WinAscent: 1103
OS2WinAOffset: 0
OS2WinDescent: 307
OS2WinDOffset: 0
HheadAscent: 1035
HheadAOffset: 0
HheadDescent: -361
HheadDOffset: 0
OS2SubXSize: 666
OS2SubYSize: 614
OS2SubXOff: 0
OS2SubYOff: 77
OS2SupXSize: 666
OS2SupYSize: 614
OS2SupXOff: 0
OS2SupYOff: 358
OS2StrikeYSize: 40
OS2StrikeYPos: 301
OS2CapHeight: 722
OS2XHeight: 500
OS2Vendor: 'NONE'
OS2CodePages: 20000197.00000000
OS2UnicodeRanges: a00002ff.5000204b.00000000.00000000
Lookup: 1 0 0 "'aalt' Activar todas las variantes lookup 0" { "'aalt' Activar todas las variantes lookup 0 subtable"  } ['aalt' ('DFLT' <'dflt' > 'cyrl' <'BSH ' 'CHU ' 'dflt' > 'latn' <'AZE ' 'CAT ' 'CRT ' 'KAZ ' 'MOL ' 'NLD ' 'ROM ' 'TAT ' 'TRK ' 'dflt' > ) ]
Lookup: 3 0 0 "'aalt' Activar todas las variantes lookup 1" { "'aalt' Activar todas las variantes lookup 1 subtable"  } ['aalt' ('DFLT' <'dflt' > 'cyrl' <'BSH ' 'CHU ' 'dflt' > 'latn' <'AZE ' 'CAT ' 'CRT ' 'KAZ ' 'MOL ' 'NLD ' 'ROM ' 'TAT ' 'TRK ' 'dflt' > ) ]

StartChar: A
Encoding: 65 65 0
Width: 707
GlyphClass: 2
Flags: W
HStem: -7 21G<71.5 98 609 635.5> 177 122<258 449> 709 20G<341.5 366.5>
LayerCount: 2
Fore
SplineSet
354 729 m 0
 379 729 400 715 409 693 c 2
 672 73 l 2
 675 67 677 61 677 52 c 0
 677 22 651 -7 620 -7 c 0
 598 -7 577 7 568 28 c 2
 501 177 l 1
 206 177 l 1
 139 28 l 2
 130 7 109 -7 87 -7 c 0
 56 -7 30 22 30 52 c 0
 30 61 32 67 35 73 c 2
 298 693 l 2
 307 715 329 729 354 729 c 0
354 527 m 1
 258 299 l 1
 449 299 l 1
 354 527 l 1
EndSplineSet
Substitution2: "Single Substitution lookup 29 subtable" ordfeminine
Substitution2: "'aalt' Activar todas las variantes lookup 0 subtable" ordfeminine
EndChar

StartChar: Atilde
Encoding: 195 195 5
Width: 707
GlyphClass: 2
Flags: W
HStem: -7 21G<71.5 98 609 635.5> 177 122<258 449> 709 20G<341.5 366.5> 769 102<429.368 527.396> 841 102<244.604 342.632>
VStem: 136 99<772.456 833.611> 537 99<878.389 939.544>
LayerCount: 2
Fore
SplineSet
585 949 m 7xf6
 613 949 636 926 636 898 c 7
 636 849 582 769 490 769 c 7xf6
 430 769 395 793 355 813 c 4
 315 833 296 841 282 841 c 7
 257 841 244 827 235 798 c 4
 228 777 209 763 187 763 c 7
 159 763 136 786 136 814 c 7
 136 863 190 943 282 943 c 7xee
 342 943 377 919 417 899 c 4
 457 879 476 871 490 871 c 7
 515 871 528 885 537 914 c 4
 544 935 563 949 585 949 c 7xf6
EndSplineSet
Refer: 0 65 N 1 0 0 1 0 0 2
EndChar

StartChar: B
Encoding: 66 66 6
Width: 711
GlyphClass: 2
Flags: W
HStem: 0 122<196 502.132> 322 122<196 472.662> 600 122<196 472.369>
VStem: 84 112<122 322 444 600> 503 115<471.823 570.395> 541 112<158.2 287.26>
LayerCount: 2
Fore
SplineSet
420 722 m 2xf4
 538 722 618 656 618 537 c 0xf8
 618 481 596 428 554 395 c 1
 618 360 653 296 653 218 c 0
 653 64 542 0 430 0 c 2
 140 0 l 2
 109 0 84 26 84 58 c 2
 84 664 l 2
 84 696 109 722 140 722 c 2
 420 722 l 2xf4
196 600 m 1
 196 444 l 1
 393 444 l 2
 444 444 503 465 503 522 c 0
 503 579 444 600 393 600 c 2
 196 600 l 1
196 322 m 1
 196 122 l 1
 430 122 l 2
 485 122 541 154 541 220 c 0xf4
 541 315 463 322 389 322 c 2
 196 322 l 1
EndSplineSet
EndChar

StartChar: C
Encoding: 67 67 7
Width: 700
GlyphClass: 2
Flags: W
HStem: -9 122<311.989 540.32> 609 122<312.331 537.234>
VStem: 51 112<269.249 458.519>
LayerCount: 2
Fore
SplineSet
408 609 m 0
 270 609 163 489 163 362 c 0
 163 244 267 113 404 113 c 0
 458 113 510 115 555 143 c 0
 566 150 577 159 593 159 c 0
 624 159 649 132 649 98 c 0
 649 71 633 51 615 39 c 0
 551 -3 469 -9 404 -9 c 0
 208 -9 51 161 51 362 c 0
 51 550 194 731 408 731 c 0
 486 731 546 723 619 681 c 0
 637 671 649 650 649 626 c 0
 649 592 623 565 593 565 c 0
 578 565 567 571 555 578 c 0
 507 605 457 609 408 609 c 0
EndSplineSet
EndChar

StartChar: D
Encoding: 68 68 9
Width: 792
GlyphClass: 2
Flags: W
HStem: 0 122<199 505.606> 600 122<199 488.494>
VStem: 84 115<122 600> 619 115<242.591 460.528>
LayerCount: 2
Fore
SplineSet
141 722 m 2
 399 722 l 2
 583 722 734 565 734 355 c 0
 734 148 601 0 404 0 c 2
 141 0 l 2
 109 0 84 26 84 58 c 2
 84 664 l 2
 84 696 109 722 141 722 c 2
619 355 m 0
 619 507 507 600 399 600 c 2
 199 600 l 1
 199 122 l 1
 404 122 l 2
 542 122 619 217 619 355 c 0
EndSplineSet
EndChar

StartChar: E
Encoding: 69 69 10
Width: 601
GlyphClass: 2
Flags: W
HStem: 0 122<174 524.642> 326 122<174 489.642> 600 122<174 524.642>
VStem: 64 110<122 326 448 600>
LayerCount: 2
Fore
SplineSet
64 664 m 2
 64 696 88 722 119 722 c 2
 482 722 l 2
 513 722 537 695 537 661 c 0
 537 627 513 600 482 600 c 2
 174 600 l 1
 174 448 l 1
 447 448 l 2
 478 448 502 421 502 387 c 0
 502 353 478 326 447 326 c 2
 174 326 l 1
 174 122 l 1
 482 122 l 2
 513 122 537 95 537 61 c 0
 537 27 513 0 482 0 c 2
 119 0 l 2
 88 0 64 26 64 58 c 2
 64 664 l 2
EndSplineSet
EndChar

StartChar: F
Encoding: 70 70 15
Width: 590
GlyphClass: 2
Flags: W
HStem: 326 122<196 518.236> 600 122<196 554.236>
VStem: 84 112<11.5321 326 448 600>
LayerCount: 2
Fore
SplineSet
84 664 m 2
 84 696 109 722 140 722 c 2
 511 722 l 2
 542 722 567 695 567 661 c 0
 567 627 542 600 511 600 c 2
 196 600 l 1
 196 448 l 1
 475 448 l 2
 506 448 531 421 531 387 c 0
 531 353 506 326 475 326 c 2
 196 326 l 1
 196 58 l 2
 196 26 171 0 140 0 c 0
 109 0 84 26 84 58 c 2
 84 664 l 2
EndSplineSet
EndChar

StartChar: G
Encoding: 71 71 16
Width: 770
GlyphClass: 2
Flags: W
HStem: -9 122<329.24 556.19> 278 122<400.152 579> 609 122<327.569 557.989>
VStem: 59 113<253.161 463.075> 386 306<291.829 385.753> 579 113<134.938 278>
LayerCount: 2
Fore
SplineSet
456 609 m 0xf4
 286 609 172 512 172 361 c 0
 172 184 318 113 456 113 c 0
 510 113 555 132 579 146 c 1
 579 278 l 1xf4
 447 278 l 2
 414 278 386 305 386 339 c 0
 386 373 414 400 447 400 c 2
 636 400 l 2
 667 400 692 374 692 341 c 2xf8
 692 112 l 2
 692 31 534 -9 456 -9 c 0
 214 -9 59 137 59 361 c 0
 59 593 235 731 456 731 c 0
 521 731 583 717 644 677 c 0
 661 666 671 645 671 624 c 0
 671 586 642 564 614 564 c 0
 578 564 555 609 456 609 c 0xf4
EndSplineSet
EndChar

StartChar: H
Encoding: 72 72 17
Width: 767
GlyphClass: 2
Flags: W
HStem: -7 21G<126 156.5 610.5 641> 320 122<196 571> 709 20G<126 156.5 610.5 641>
VStem: 84 112<5.38063 320 442 716.619> 571 112<5.38063 320 442 716.619>
LayerCount: 2
Fore
SplineSet
84 671 m 2
 84 704 111 729 141 729 c 0
 172 729 196 703 196 671 c 2
 196 442 l 1
 571 442 l 1
 571 671 l 2
 571 703 595 729 626 729 c 0
 656 729 683 704 683 671 c 2
 683 51 l 2
 683 18 656 -7 626 -7 c 0
 595 -7 571 19 571 51 c 2
 571 320 l 1
 196 320 l 1
 196 51 l 2
 196 19 172 -7 141 -7 c 0
 111 -7 84 18 84 51 c 2
 84 671 l 2
EndSplineSet
EndChar

StartChar: I
Encoding: 73 73 18
Width: 332
GlyphClass: 2
Flags: W
HStem: -7 117<63.8291 105 227 268.171> 612 117<63.8291 105 227 268.171>
VStem: 50 232<6.25488 96.2299 625.77 715.745> 105 122<103.734 618.266>
LayerCount: 2
Fore
SplineSet
50 671 m 3xe0
 50 703 77 729 111 729 c 2
 221 729 l 2
 255 729 282 703 282 671 c 3xe0
 282 641 258 615 227 612 c 1
 227 110 l 1xd0
 258 107 282 81 282 51 c 3
 282 19 255 -7 221 -7 c 2
 111 -7 l 2
 77 -7 50 19 50 51 c 3xe0
 50 81 74 107 105 110 c 1
 105 612 l 1xd0
 74 615 50 641 50 671 c 3xe0
EndSplineSet
EndChar

StartChar: J
Encoding: 74 74 23
Width: 550
GlyphClass: 2
Flags: W
HStem: -6 122<172.635 333.56> 607 122<209.327 398>
VStem: 191 329<625.794 709.985> 398 122<180.257 607>
LayerCount: 2
Fore
SplineSet
265 116 m 3xd0
 347 116 398 194 398 248 c 2
 398 607 l 1xd0
 271 607 l 2
 227 607 191 634 191 668 c 3
 191 702 227 729 271 729 c 2
 459 729 l 2
 493 729 520 703 520 671 c 2xe0
 520 246 l 2
 520 116 416 -6 265 -6 c 3
 156 -6 13 61 13 157 c 3
 13 186 35 218 74 218 c 3
 97 218 116 205 127 187 c 0
 160 131 197 116 265 116 c 3xd0
EndSplineSet
EndChar

StartChar: K
Encoding: 75 75 24
Width: 704
GlyphClass: 2
Flags: W
HStem: -7 21G<126.5 159.5 602.5 628> 709 20G<126.5 159.5 583 608>
VStem: 84 118<6.25488 225 369 715.745>
LayerCount: 2
Fore
SplineSet
202 225 m 5
 202 54 l 6
 202 20 176 -7 143 -7 c 4
 110 -7 84 19 84 51 c 6
 84 671 l 6
 84 703 110 729 143 729 c 4
 176 729 202 702 202 668 c 6
 202 369 l 5
 548 710 l 6
 560 722 575 729 591 729 c 4
 625 729 651 704 651 671 c 4
 651 657 646 641 635 630 c 6
 385 387 l 5
 655 89 l 6
 665 78 670 64 670 51 c 4
 670 20 645 -7 611 -7 c 4
 594 -7 578 1 566 14 c 6
 296 315 l 5
 202 225 l 5
EndSplineSet
EndChar

StartChar: L
Encoding: 76 76 25
Width: 568
GlyphClass: 2
Flags: W
HStem: 0 122<194 545.642>
VStem: 84 110<122 714.468>
LayerCount: 2
Fore
SplineSet
84 668 m 2
 84 700 108 726 139 726 c 0
 170 726 194 700 194 668 c 2
 194 122 l 1
 503 122 l 2
 534 122 558 95 558 61 c 0
 558 27 534 0 503 0 c 2
 139 0 l 2
 108 0 84 26 84 58 c 2
 84 668 l 2
EndSplineSet
EndChar

StartChar: M
Encoding: 77 77 26
Width: 897
GlyphClass: 2
Flags: W
HStem: -7 21G<126 158 738 770> 709 20G<126 152 744 770>
VStem: 86 114<6.25488 510> 698 114<5.91457 510>
LayerCount: 2
Fore
SplineSet
200 510 m 1
 200 54 l 2
 200 20 174 -7 142 -7 c 0
 110 -7 86 19 86 51 c 2
 86 671 l 2
 86 703 110 729 142 729 c 0
 162 729 179 718 190 703 c 2
 448 339 l 1
 708 703 l 2
 719 718 734 729 754 729 c 0
 786 729 812 703 812 671 c 2
 812 51 l 2
 812 19 786 -7 754 -7 c 0
 722 -7 698 20 698 54 c 2
 698 510 l 1
 498 231 l 2
 487 216 469 205 448 205 c 0
 427 205 409 216 398 231 c 2
 200 510 l 1
EndSplineSet
EndChar

StartChar: N
Encoding: 78 78 27
Width: 771
GlyphClass: 2
Flags: W
HStem: -7 21G<124.5 155.5 623.5 647> 709 20G<125.5 148.5 616.5 647.5>
VStem: 84 112<5.38063 522> 576 112<200 716.619>
LayerCount: 2
Fore
SplineSet
576 668 m 2
 576 702 601 729 632 729 c 0
 663 729 688 703 688 671 c 2
 688 51 l 2
 688 18 662 -7 632 -7 c 0
 615 -7 597 1 586 16 c 2
 196 522 l 1
 196 54 l 2
 196 20 171 -7 140 -7 c 0
 109 -7 84 19 84 51 c 2
 84 671 l 2
 84 705 111 729 140 729 c 0
 157 729 173 721 184 706 c 2
 576 200 l 1
 576 668 l 2
EndSplineSet
EndChar

StartChar: O
Encoding: 79 79 29
Width: 800
GlyphClass: 2
Flags: W
HStem: -9 122<296.325 503.675> 609 122<296.325 503.675>
VStem: 58 114<244.196 477.804> 628 114<244.196 477.804>
LayerCount: 2
Fore
SplineSet
400 731 m 0
 594 731 742 609 742 361 c 0
 742 113 594 -9 400 -9 c 0
 206 -9 58 113 58 361 c 0
 58 609 206 731 400 731 c 0
400 609 m 0
 251 609 172 507 172 361 c 0
 172 215 251 113 400 113 c 0
 549 113 628 215 628 361 c 0
 628 507 549 609 400 609 c 0
EndSplineSet
Substitution2: "Single Substitution lookup 29 subtable" ordmasculine
Substitution2: "'aalt' Activar todas las variantes lookup 0 subtable" ordmasculine
EndChar

StartChar: Otilde
Encoding: 213 213 34
Width: 800
GlyphClass: 2
Flags: W
HStem: -9 122<296.325 503.675> 609 122<296.325 503.675> 769 102<469.368 567.396> 841 102<284.604 382.632>
VStem: 58 114<244.196 477.804> 176 99<772.456 833.611> 577 99<878.389 939.544> 628 114<244.196 477.804>
LayerCount: 2
Fore
SplineSet
625 949 m 7xee
 653 949 676 926 676 898 c 7
 676 849 622 769 530 769 c 7xee
 470 769 435 793 395 813 c 4
 355 833 336 841 322 841 c 7
 297 841 284 827 275 798 c 4
 268 777 249 763 227 763 c 7
 199 763 176 786 176 814 c 7
 176 863 230 943 322 943 c 7xde
 382 943 417 919 457 899 c 4
 497 879 516 871 530 871 c 7
 555 871 568 885 577 914 c 4
 584 935 603 949 625 949 c 7xee
EndSplineSet
Refer: 29 79 N 1 0 0 1 0 0 2
EndChar

StartChar: P
Encoding: 80 80 35
Width: 627
GlyphClass: 2
Flags: W
HStem: -7 21G<123.5 154.5> 258 122<195 440.032> 600 122<195 439.619>
VStem: 84 111<4.5321 258 380 600> 486 111<422.874 558.832>
LayerCount: 2
Fore
SplineSet
597 490 m 0
 597 339 496 258 340 258 c 2
 195 258 l 1
 195 51 l 2
 195 19 170 -7 139 -7 c 0
 108 -7 84 19 84 51 c 2
 84 664 l 2
 84 696 108 722 139 722 c 2
 340 722 l 2
 495 722 597 649 597 490 c 0
195 600 m 1
 195 380 l 1
 340 380 l 2
 414 380 486 398 486 490 c 0
 486 589 405 600 340 600 c 2
 195 600 l 1
EndSplineSet
EndChar

StartChar: Q
Encoding: 81 81 36
Width: 800
GlyphClass: 2
Flags: W
HStem: -9 122<296.325 450.341> 609 122<296.325 503.675>
VStem: 58 114<244.196 477.804> 628 114<241.291 477.804>
LayerCount: 2
Fore
SplineSet
742 361 m 0
 742 227 699 130 629 69 c 1
 701 -30 l 2
 708 -40 713 -53 713 -67 c 0
 713 -100 688 -127 657 -127 c 0
 639 -127 623 -118 613 -104 c 2
 528 11 l 1
 489 -3 446 -9 400 -9 c 0
 206 -9 58 113 58 361 c 0
 58 609 206 731 400 731 c 0
 594 731 742 609 742 361 c 0
460 299 m 2
 556 168 l 1
 603 212 628 280 628 361 c 0
 628 507 549 609 400 609 c 0
 251 609 172 507 172 361 c 0
 172 215 251 113 400 113 c 0
 419 113 435 114 451 117 c 1
 373 225 l 2
 366 235 361 248 361 262 c 0
 361 297 387 322 417 322 c 0
 435 322 450 313 460 299 c 2
EndSplineSet
EndChar

StartChar: R
Encoding: 82 82 37
Width: 662
GlyphClass: 2
Flags: W
HStem: -7 21G<124.5 155.5 547 571.5> 258 122<195 377.437> 600 122<195 445.701>
VStem: 84 111<4.5321 258 380 600> 487 111<420.811 558.832>
LayerCount: 2
Fore
SplineSet
340 722 m 2
 495 722 598 649 598 490 c 0
 598 395 558 328 489 291 c 1
 604 84 l 2
 609 75 612 64 612 53 c 0
 612 18 586 -7 557 -7 c 0
 537 -7 521 5 511 22 c 2
 378 260 l 1
 366 259 353 258 340 258 c 2
 195 258 l 1
 195 51 l 2
 195 19 171 -7 140 -7 c 0
 109 -7 84 19 84 51 c 2
 84 664 l 2
 84 696 109 722 140 722 c 2
 340 722 l 2
195 600 m 1
 195 380 l 1
 340 380 l 2
 414 380 487 398 487 490 c 0
 487 589 405 600 340 600 c 2
 195 600 l 1
EndSplineSet
EndChar

StartChar: S
Encoding: 83 83 38
Width: 617
GlyphClass: 2
Flags: W
HStem: -9 122<199.055 409.984> 609 122<214.216 418.333>
VStem: 58 113<465.952 569.387> 463 111<156.872 256.42>
LayerCount: 2
Fore
SplineSet
562 591 m 0
 562 556 536 530 506 530 c 0
 490 530 476 536 465 549 c 0
 422 600 362 609 309 609 c 0
 227 609 171 574 171 513 c 0
 171 461 229 427 319 415 c 0
 442 398 574 350 574 203 c 0
 574 56 435 -9 309 -9 c 0
 173 -9 101 52 59 98 c 0
 49 109 43 125 43 141 c 0
 43 176 70 202 99 202 c 0
 114 202 128 196 138 184 c 0
 186 129 236 113 309 113 c 0
 367 113 463 135 463 209 c 0
 463 284 353 299 298 307 c 0
 166 327 58 388 58 519 c 0
 58 660 178 731 309 731 c 0
 424 731 562 669 562 591 c 0
EndSplineSet
EndChar

StartChar: T
Encoding: 84 84 39
Width: 585
GlyphClass: 2
Flags: W
HStem: -7 21G<275 309> 600 122<8.7644 232 354 576.236>
VStem: 232 122<7.1544 600>
LayerCount: 2
Fore
SplineSet
-4 661 m 0
 -4 695 21 722 52 722 c 2
 533 722 l 2
 564 722 589 695 589 661 c 0
 589 627 564 600 533 600 c 2
 354 600 l 1
 354 51 l 2
 354 19 326 -7 292 -7 c 0
 258 -7 232 19 232 51 c 2
 232 600 l 1
 52 600 l 2
 21 600 -4 627 -4 661 c 0
EndSplineSet
EndChar

StartChar: U
Encoding: 85 85 40
Width: 741
GlyphClass: 2
Flags: W
HStem: -9 122<280.212 459.943> 709 20G<119.5 150.5 590.5 621.5>
VStem: 79 112<203.983 717.468> 550 112<204.313 717.468>
LayerCount: 2
Fore
SplineSet
79 671 m 2
 79 703 104 729 135 729 c 0
 166 729 191 703 191 671 c 2
 191 291 l 2
 191 197 256 113 370 113 c 0
 484 113 550 197 550 291 c 2
 550 671 l 2
 550 703 575 729 606 729 c 0
 637 729 662 703 662 671 c 2
 662 287 l 2
 662 137 553 -9 370 -9 c 0
 187 -9 79 137 79 287 c 2
 79 671 l 2
EndSplineSet
EndChar

StartChar: V
Encoding: 86 86 45
Width: 686
GlyphClass: 2
Flags: W
HStem: -8 21G<330.5 355.5> -8 21G<330.5 355.5> 709 20G<55.5 85 601 630.5>
LayerCount: 2
Fore
SplineSet
16 671 m 0xa0
 16 699 38 729 73 729 c 0
 97 729 116 714 125 692 c 2
 343 177 l 1
 561 692 l 2
 570 713 589 729 613 729 c 0
 648 729 670 699 670 671 c 0
 670 664 669 655 666 648 c 2
 399 27 l 2
 390 6 368 -8 343 -8 c 0
 318 -8 296 7 287 27 c 2
 20 648 l 2
 17 656 16 664 16 671 c 0xa0
EndSplineSet
EndChar

StartChar: W
Encoding: 87 87 46
Width: 1053
GlyphClass: 2
Flags: W
LayerCount: 2
Fore
SplineSet
471 527 m 2
 479 543 501 559 526 559 c 0
 551 559 574 543 582 527 c 2
 733 214 l 1
 898 702 l 2
 904 721 927 733 953 733 c 0
 990 733 1010 710 1010 686 c 0
 1010 678 1010 670 1007 661 c 2
 800 34 l 2
 794 15 767 -3 740 -3 c 0
 716 -3 689 14 681 31 c 2
 526 367 l 1
 372 31 l 2
 364 14 337 -3 313 -3 c 0
 286 -3 259 15 253 34 c 2
 46 661 l 2
 43 670 43 678 43 686 c 0
 43 710 63 733 100 733 c 0
 126 733 149 721 155 702 c 2
 320 214 l 1
 471 527 l 2
EndSplineSet
EndChar

StartChar: X
Encoding: 88 88 47
Width: 669
GlyphClass: 2
Flags: W
HStem: -7 21G<81 105 564 588> 709 20G<81 105 564 588>
LayerCount: 2
Fore
SplineSet
51 635 m 2
 44 645 40 658 40 671 c 0
 40 704 66 729 96 729 c 0
 114 729 130 719 141 705 c 2
 334 447 l 1
 528 705 l 2
 539 719 555 729 573 729 c 0
 603 729 629 704 629 671 c 0
 629 658 625 645 618 635 c 2
 411 361 l 1
 618 87 l 2
 625 77 629 64 629 51 c 0
 629 18 603 -7 573 -7 c 0
 555 -7 539 3 528 17 c 2
 334 275 l 1
 141 17 l 2
 130 3 114 -7 96 -7 c 0
 66 -7 40 18 40 51 c 0
 40 64 44 77 51 87 c 2
 258 361 l 1
 51 635 l 2
EndSplineSet
EndChar

StartChar: Y
Encoding: 89 89 48
Width: 646
GlyphClass: 2
Flags: W
HStem: -7 21G<306.5 341.5> 709 20G<63.5 88.5 557.5 582.5>
VStem: 262 124<6.25488 341>
LayerCount: 2
Fore
SplineSet
33 635 m 2
 25 645 22 658 22 671 c 0
 22 704 48 729 79 729 c 0
 98 729 114 719 125 705 c 2
 323 447 l 1
 521 705 l 2
 532 719 548 729 567 729 c 0
 598 729 624 704 624 671 c 0
 624 658 621 645 613 635 c 2
 386 342 l 1
 386 342 386 148 386 51 c 0
 386 19 359 -7 324 -7 c 0
 289 -7 262 19 262 51 c 0
 262 148 262 341 262 341 c 1
 33 635 l 2
EndSplineSet
EndChar

StartChar: Z
Encoding: 90 90 49
Width: 629
GlyphClass: 2
Flags: W
HStem: 0 122<212 602.152> 600 122<72.4414 424>
LayerCount: 2
Fore
SplineSet
60 661 m 0
 60 695 84 722 116 722 c 2
 540 722 l 2
 572 722 596 696 596 664 c 0
 596 651 593 640 586 631 c 2
 212 122 l 1
 558 122 l 2
 590 122 615 95 615 61 c 0
 615 27 590 0 558 0 c 2
 98 0 l 2
 66 0 41 26 41 58 c 0
 41 71 44 82 51 91 c 2
 424 600 l 1
 116 600 l 2
 84 600 60 627 60 661 c 0
EndSplineSet
EndChar

StartChar: a
Encoding: 97 97 50
Width: 591
GlyphClass: 2
Flags: W
HStem: -9 122<220.746 372.918> 387 122<220.746 372.918> 479 20G<482.5 509.5>
VStem: 42 112<178.825 321.175> 438 110<177.478 322.522>
LayerCount: 2
Fore
SplineSet
442 37 m 1xb8
 401 8 351 -9 296 -9 c 0
 147 -9 42 110 42 250 c 0
 42 390 147 509 296 509 c 0xd8
 351 509 401 492 442 463 c 1
 450 484 471 499 494 499 c 0
 525 499 548 474 548 442 c 2
 548 58 l 2
 548 26 525 1 494 1 c 0
 471 1 450 16 442 37 c 1xb8
438 250 m 0
 438 329 371 387 296 387 c 0
 221 387 154 329 154 250 c 0
 154 171 221 113 296 113 c 0
 371 113 438 171 438 250 c 0
EndSplineSet
Substitution2: "'ss01' Estilo 1 lookup 35 subtable" a.ss01
Substitution2: "'salt' Alternativas estil+AO0A-sticas lookup 34 subtable" a.ss01
Substitution2: "Single Substitution lookup 29 subtable" ordfeminine
AlternateSubs2: "'aalt' Activar todas las variantes lookup 1 subtable" a.ss01 ordfeminine
EndChar

StartChar: atilde
Encoding: 227 227 55
Width: 591
GlyphClass: 2
Flags: W
HStem: -9 122<220.746 372.918> 387 122<220.746 372.918> 479 20G<482.5 509.5> 575 102<383.612 466.702> 647 102<227.298 310.388>
VStem: 42 112<178.825 321.175> 134 85<575.95 642.202> 438 110<177.478 322.522> 475 85<681.798 748.05>
LayerCount: 2
Fore
SplineSet
516 755 m 7x9280
 540 755 560 732 560 704 c 7
 560 655 513 575 435 575 c 7x9280
 384 575 355 599 321 619 c 4
 287 639 271 647 259 647 c 7
 238 647 227 633 219 604 c 4
 213 583 196 569 178 569 c 7
 154 569 134 592 134 620 c 7
 134 669 181 749 259 749 c 7x8a80
 310 749 339 725 373 705 c 4
 407 685 423 677 435 677 c 7
 456 677 467 691 475 720 c 4
 481 741 498 755 516 755 c 7x9280
EndSplineSet
Refer: 50 97 N 1 0 0 1 0 0 2
Substitution2: "'ss01' Estilo 1 lookup 35 subtable" atilde.ss01
Substitution2: "'salt' Alternativas estil+AO0A-sticas lookup 34 subtable" atilde.ss01
Substitution2: "'aalt' Activar todas las variantes lookup 0 subtable" atilde.ss01
EndChar

StartChar: b
Encoding: 98 98 56
Width: 624
GlyphClass: 2
Flags: W
HStem: -9 122<248.744 401.474> 387 122<248.383 401.474> 709 20G<113.5 144.5>
VStem: 73 112<177.478 322.522 467 716.973> 468 112<178.825 321.175>
LayerCount: 2
Fore
SplineSet
73 668 m 2
 73 702 98 729 129 729 c 0
 160 729 185 702 185 668 c 2
 185 467 l 1
 225 493 274 509 326 509 c 0
 475 509 580 390 580 250 c 0
 580 110 475 -9 326 -9 c 0
 273 -9 223 8 182 35 c 1
 176 10 155 -9 129 -9 c 0
 98 -9 73 17 73 49 c 2
 73 668 l 2
468 250 m 0
 468 329 402 387 326 387 c 0
 250 387 185 329 185 250 c 0
 185 171 250 113 326 113 c 0
 402 113 468 171 468 250 c 0
EndSplineSet
EndChar

StartChar: c
Encoding: 99 99 57
Width: 489
GlyphClass: 2
Flags: W
HStem: -9 122<209.789 368.76> 387 122<209.789 368.76>
VStem: 30 109<178.915 321.085>
LayerCount: 2
Fore
SplineSet
374 139 m 0
 383 146 393 150 405 150 c 0
 435 150 459 123 459 89 c 0
 459 69 450 49 435 38 c 0
 396 8 350 -9 292 -9 c 0
 137 -9 30 108 30 250 c 0
 30 392 137 509 292 509 c 0
 350 509 396 492 435 462 c 0
 450 451 459 431 459 411 c 0
 459 377 435 350 405 350 c 0
 393 350 383 354 374 361 c 0
 354 377 323 387 292 387 c 0
 207 387 139 327 139 250 c 0
 139 173 207 113 292 113 c 0
 323 113 354 123 374 139 c 0
EndSplineSet
EndChar

StartChar: d
Encoding: 100 100 59
Width: 624
GlyphClass: 2
Flags: W
HStem: -9 122<220.724 373.664> 387 122<220.724 374.037> 709 20G<478.5 509.5>
VStem: 43 112<178.825 321.175> 438 112<177.478 322.522 467 716.973>
LayerCount: 2
Fore
SplineSet
438 668 m 2
 438 702 463 729 494 729 c 0
 525 729 550 702 550 668 c 2
 550 49 l 2
 550 17 525 -9 494 -9 c 0
 468 -9 447 10 441 35 c 1
 400 8 349 -9 296 -9 c 0
 147 -9 43 110 43 250 c 0
 43 390 147 509 296 509 c 0
 348 509 398 493 438 467 c 1
 438 668 l 2
438 250 m 0
 438 329 372 387 296 387 c 0
 220 387 155 329 155 250 c 0
 155 171 220 113 296 113 c 0
 372 113 438 171 438 250 c 0
EndSplineSet
EndChar

StartChar: e
Encoding: 101 101 60
Width: 562
GlyphClass: 2
Flags: W
HStem: -9 122<213.319 397.904> 204 102<169 400> 405 104<227.563 355.368>
LayerCount: 2
Fore
SplineSet
521 262 m 0
 521 230 497 204 466 204 c 2
 159 204 l 1
 177 150 223 113 294 113 c 0
 355 113 381 117 416 150 c 0
 426 159 438 165 452 165 c 0
 485 165 507 136 507 104 c 0
 507 85 499 69 488 58 c 0
 452 23 396 -9 294 -9 c 0
 146 -9 41 110 41 250 c 0
 41 390 146 509 294 509 c 0
 450 509 521 382 521 262 c 0
400 306 m 1
 391 343 364 405 294 405 c 0
 224 405 182 343 169 306 c 1
 400 306 l 1
EndSplineSet
EndChar

StartChar: f
Encoding: 102 102 65
Width: 391
GlyphClass: 2
Flags: W
HStem: -8 21G<145 183> -8 21G<145 183> 381 122<15.8481 99 233 366.152> 603 122<242.998 364.294>
VStem: 99 134<7.43721 381 503 590.588>
LayerCount: 2
Fore
SplineSet
3 442 m 0xb8
 3 476 28 503 60 503 c 2
 99 503 l 1
 99 552 l 2
 99 646 171 725 293 725 c 0
 344 725 410 703 410 645 c 0
 410 611 385 584 353 584 c 0
 325 584 322 603 293 603 c 0
 253 603 233 582 233 552 c 2
 233 503 l 1
 322 503 l 2
 354 503 379 476 379 442 c 0
 379 408 354 381 322 381 c 2
 233 381 l 1
 233 48 l 2
 233 17 202 -8 164 -8 c 0
 126 -8 99 17 99 48 c 2
 99 381 l 1
 60 381 l 2
 28 381 3 408 3 442 c 0xb8
EndSplineSet
EndChar

StartChar: g
Encoding: 103 103 66
Width: 629
GlyphClass: 2
Flags: W
HStem: -194 118<188.3 402.161> -10 122<223.519 378.498> 387 122<224.971 377.187>
VStem: 43 113<177.825 320.351> 444 113<176.478 321.795>
LayerCount: 2
Fore
SplineSet
557 104 m 2
 557 -101 495 -194 318 -194 c 0
 236 -194 159 -190 95 -134 c 0
 82 -123 73 -106 73 -87 c 0
 73 -53 99 -26 130 -26 c 0
 144 -26 156 -31 166 -39 c 0
 205 -69 234 -76 322 -76 c 0
 415 -76 429 -35 439 29 c 1
 398 4 351 -10 300 -10 c 0
 149 -10 43 109 43 249 c 0
 43 389 149 509 300 509 c 0
 356 509 408 492 450 463 c 1
 459 483 479 497 501 497 c 0
 532 497 557 471 557 439 c 2
 557 104 l 2
156 249 m 0
 156 170 223 112 300 112 c 0
 377 112 444 170 444 249 c 0
 444 328 377 387 300 387 c 0
 223 387 156 328 156 249 c 0
EndSplineSet
EndChar

StartChar: h
Encoding: 104 104 67
Width: 609
GlyphClass: 2
Flags: W
HStem: -7 21G<111.5 142.5 466.5 497.5> 389 122<255.533 393.241> 709 20G<111.5 142.5>
VStem: 71 111<4.92178 302.647 468 716.973> 427 111<4.92178 351.953>
LayerCount: 2
Fore
SplineSet
127 -7 m 0
 96 -7 71 19 71 51 c 2
 71 668 l 2
 71 702 96 729 127 729 c 0
 158 729 182 702 182 668 c 2
 182 468 l 1
 222 496 271 511 325 511 c 0
 500 511 538 393 538 252 c 2
 538 50 l 2
 538 18 513 -7 482 -7 c 0
 451 -7 427 18 427 49 c 2
 427 247 l 2
 427 332 412 389 325 389 c 0
 230 389 182 293 182 192 c 2
 182 49 l 2
 182 18 158 -7 127 -7 c 0
EndSplineSet
EndChar

StartChar: dotlessi
Encoding: 305 305 69
Width: 268
GlyphClass: 2
Flags: W
HStem: -6 21G<116 149.5> 485 20G<116 149.5>
VStem: 73 122<8.06137 490.939>
LayerCount: 2
Fore
SplineSet
133 505 m 3
 166 505 195 480 195 448 c 2
 195 51 l 2
 195 19 166 -6 133 -6 c 3
 99 -6 73 20 73 51 c 2
 73 448 l 2
 73 479 99 505 133 505 c 3
EndSplineSet
EndChar

StartChar: j
Encoding: 106 106 74
Width: 279
Flags: W
HStem: -195 122<-52.1709 65.3657> 487 20G<125 159> 589 162<84.5359 196.511>
VStem: 59 162<615.432 724.568> 81 122<-56.5322 493.745>
LayerCount: 2
Fore
SplineSet
142 507 m 7xe8
 176 507 203 481 203 449 c 6
 203 32 l 6
 203 -150 107 -195 -5 -195 c 7
 -39 -195 -66 -168 -66 -134 c 7
 -66 -100 -39 -73 -5 -73 c 7
 74 -73 81 -47 81 34 c 6
 81 449 l 6
 81 481 108 507 142 507 c 7xe8
EndSplineSet
Refer: 133 46 S 1 0 0 1 19 609 2
Substitution2: "Single Substitution lookup 4 subtable" uni0237
Substitution2: "Single Substitution lookup 3 subtable" uni0237
EndChar

StartChar: k
Encoding: 107 107 75
Width: 571
GlyphClass: 2
Flags: W
HStem: -7 21G<114.5 147.5 474 497.5> 491 20G<452 476> 709 20G<114.5 147.5>
VStem: 73 117<6.25488 161 297 716.085>
LayerCount: 2
Fore
SplineSet
418 494 m 2
 430 504 445 511 459 511 c 0
 493 511 517 484 517 454 c 0
 517 438 512 422 499 411 c 2
 334 269 l 1
 523 91 l 2
 534 81 540 65 540 50 c 0
 540 17 513 -7 482 -7 c 0
 466 -7 451 1 440 11 c 2
 236 201 l 1
 190 161 l 1
 190 54 l 2
 190 20 164 -7 131 -7 c 0
 98 -7 73 19 73 51 c 2
 73 668 l 2
 73 702 98 729 131 729 c 0
 164 729 190 702 190 668 c 2
 190 297 l 1
 418 494 l 2
EndSplineSet
EndChar

StartChar: l
Encoding: 108 108 76
Width: 340
GlyphClass: 2
Flags: W
HStem: -9 122<209.339 324.255> 709 20G<116.5 149.5>
VStem: 73 120<126.861 715.171>
LayerCount: 2
Fore
SplineSet
278 113 m 0
 311 113 338 86 338 52 c 0
 338 18 311 -9 278 -9 c 0
 93 -9 73 99 73 302 c 2
 73 668 l 2
 73 702 100 729 133 729 c 0
 166 729 193 702 193 668 c 2
 193 298 l 2
 193 118 199 113 278 113 c 0
EndSplineSet
Substitution2: "'ss02' Estilo 2 lookup 36 subtable" l.ss02
Substitution2: "'aalt' Activar todas las variantes lookup 0 subtable" l.ss02
EndChar

StartChar: m
Encoding: 109 109 77
Width: 910
GlyphClass: 2
Flags: W
HStem: -9 21G<115 147 438 472 763 795> 387 122<252.357 377.321 576.025 706.099>
VStem: 73 116<2.99686 324.646 446 494.085> 393 124<4.96833 329.139> 721 116<2.99686 370.186>
CounterMasks: 1 38
LayerCount: 2
Fore
SplineSet
335 509 m 0
 390 509 451 495 487 441 c 1
 529 481 585 509 663 509 c 0
 804 509 837 399 837 249 c 2
 837 48 l 2
 837 16 811 -9 779 -9 c 0
 747 -9 721 16 721 47 c 2
 721 257 l 2
 721 344 716 387 663 387 c 0
 565 387 517 327 517 247 c 2
 517 47 l 2
 517 17 489 -9 455 -9 c 0
 421 -9 393 16 393 47 c 2
 393 267 l 2
 393 322 393 387 335 387 c 0
 245 387 189 324 189 245 c 2
 189 47 l 2
 189 16 163 -9 131 -9 c 0
 99 -9 73 16 73 48 c 2
 73 450 l 2
 73 482 99 507 131 507 c 0
 163 507 189 480 189 446 c 1
 226 483 279 509 335 509 c 0
EndSplineSet
EndChar

StartChar: n
Encoding: 110 110 78
Width: 609
GlyphClass: 2
Flags: W
HStem: -7 21G<111.5 142.5 466.5 497.5> 389 122<263.788 404.496>
VStem: 71 111<4.92178 312.282> 427 111<4.92178 363.397>
LayerCount: 2
Fore
SplineSet
427 252 m 2
 427 317 426 389 352 389 c 0
 259 389 182 320 182 247 c 2
 182 49 l 2
 182 18 158 -7 127 -7 c 0
 96 -7 71 18 71 50 c 2
 71 452 l 2
 71 484 96 509 127 509 c 0
 154 509 177 488 182 460 c 1
 227 491 283 511 352 511 c 0
 504 511 538 393 538 252 c 2
 538 50 l 2
 538 18 513 -7 482 -7 c 0
 451 -7 427 18 427 49 c 2
 427 252 l 2
EndSplineSet
EndChar

StartChar: ntilde
Encoding: 241 241 79
Width: 609
GlyphClass: 2
Flags: W
HStem: -7 21G<111.5 142.5 466.5 497.5> 389 122<263.788 404.496> 575 102<339.612 422.702> 647 102<183.298 266.388>
VStem: 71 111<4.92178 312.282> 90 85<575.95 642.202> 427 111<4.92178 363.397> 431 85<681.798 748.05>
LayerCount: 2
Fore
SplineSet
472 755 m 7xe5
 496 755 516 732 516 704 c 7
 516 655 469 575 391 575 c 7xe5
 340 575 311 599 277 619 c 4
 243 639 227 647 215 647 c 7
 194 647 183 633 175 604 c 4
 169 583 152 569 134 569 c 7
 110 569 90 592 90 620 c 7
 90 669 137 749 215 749 c 7xd5
 266 749 295 725 329 705 c 4
 363 685 379 677 391 677 c 7
 412 677 423 691 431 720 c 4
 437 741 454 755 472 755 c 7xe5
EndSplineSet
Refer: 78 110 N 1 0 0 1 0 0 2
EndChar

StartChar: o
Encoding: 111 111 80
Width: 603
GlyphClass: 2
Flags: W
HStem: -9 122<224.731 379.19> 387 122<224.731 379.19>
VStem: 42 114<178.825 321.175> 448 112<178.825 321.175>
LayerCount: 2
Fore
SplineSet
302 387 m 0
 225 387 156 329 156 250 c 0
 156 171 225 113 302 113 c 0
 379 113 448 171 448 250 c 0
 448 329 379 387 302 387 c 0
302 -9 m 0
 149 -9 42 110 42 250 c 0
 42 390 149 509 302 509 c 0
 455 509 560 390 560 250 c 0
 560 110 455 -9 302 -9 c 0
EndSplineSet
Substitution2: "Single Substitution lookup 29 subtable" ordmasculine
Substitution2: "'aalt' Activar todas las variantes lookup 0 subtable" ordmasculine
EndChar

StartChar: otilde
Encoding: 245 245 85
Width: 603
GlyphClass: 2
Flags: W
HStem: -9 122<224.731 379.19> 387 122<224.731 379.19> 575 102<356.612 439.676> 647 102<200.324 283.388>
VStem: 42 114<178.825 321.175> 108 84<575.462 642.202> 448 84<681.798 748.538> 448 112<178.825 321.175>
LayerCount: 2
Fore
SplineSet
489 755 m 7xe6
 513 755 532 732 532 704 c 7
 532 655 486 575 408 575 c 7xe6
 357 575 328 599 294 619 c 4
 260 639 244 647 232 647 c 7
 211 647 200 633 192 604 c 4
 186 583 169 569 151 569 c 7
 127 569 108 592 108 620 c 7
 108 669 154 749 232 749 c 7xd6
 283 749 312 725 346 705 c 4
 380 685 396 677 408 677 c 7
 429 677 440 691 448 720 c 4
 454 741 471 755 489 755 c 7xe6
EndSplineSet
Refer: 80 111 N 1 0 0 1 0 0 2
EndChar

StartChar: p
Encoding: 112 112 86
Width: 624
GlyphClass: 2
Flags: W
HStem: -9 122<248.383 401.474> 387 122<248.744 401.474>
VStem: 73 112<-178.973 33 177.478 322.522> 468 112<178.825 321.175>
LayerCount: 2
Fore
SplineSet
185 -130 m 2
 185 -164 160 -191 129 -191 c 0
 98 -191 73 -164 73 -130 c 2
 73 451 l 2
 73 483 98 509 129 509 c 0
 155 509 176 490 182 465 c 1
 223 492 273 509 326 509 c 0
 475 509 580 390 580 250 c 0
 580 110 475 -9 326 -9 c 0
 274 -9 225 7 185 33 c 1
 185 -130 l 2
185 250 m 0
 185 171 250 113 326 113 c 0
 402 113 468 171 468 250 c 0
 468 329 402 387 326 387 c 0
 250 387 185 329 185 250 c 0
EndSplineSet
EndChar

StartChar: q
Encoding: 113 113 87
Width: 624
GlyphClass: 2
Flags: W
HStem: -9 122<220.724 374.037> 387 122<220.724 373.664>
VStem: 43 112<178.825 321.175> 438 112<-178.973 33 177.478 322.522>
LayerCount: 2
Fore
SplineSet
550 -130 m 2
 550 -164 525 -191 494 -191 c 0
 463 -191 438 -164 438 -130 c 2
 438 33 l 1
 398 7 348 -9 296 -9 c 0
 147 -9 43 110 43 250 c 0
 43 390 147 509 296 509 c 0
 349 509 400 492 441 465 c 1
 447 490 468 509 494 509 c 0
 525 509 550 483 550 451 c 2
 550 -130 l 2
155 250 m 0
 155 171 220 113 296 113 c 0
 372 113 438 171 438 250 c 0
 438 329 372 387 296 387 c 0
 220 387 155 329 155 250 c 0
EndSplineSet
EndChar

StartChar: r
Encoding: 114 114 88
Width: 421
GlyphClass: 2
Flags: W
HStem: -7 21G<114 146> 389 122<274.878 405.152>
VStem: 73 114<4.99686 306.315>
LayerCount: 2
Fore
SplineSet
185 462 m 1
 239 493 307 511 361 511 c 0
 393 511 418 484 418 450 c 0
 418 416 393 389 361 389 c 0
 266 389 187 319 187 230 c 2
 187 49 l 2
 187 18 162 -7 130 -7 c 0
 98 -7 73 18 73 50 c 2
 73 452 l 2
 73 484 98 509 130 509 c 0
 157 509 179 489 185 462 c 1
EndSplineSet
EndChar

StartChar: s
Encoding: 115 115 89
Width: 503
GlyphClass: 2
Flags: W
HStem: -9 118<174.489 343.307> 391 118<177.946 334.486>
VStem: 62 110<326.596 378.932> 352 108<122.319 178.618>
LayerCount: 2
Fore
SplineSet
230 208 m 0
 143 226 62 266 62 367 c 0
 62 473 167 509 256 509 c 0
 312 509 450 476 450 397 c 0
 450 362 423 336 396 336 c 0
 386 336 376 338 366 346 c 0
 332 374 304 391 256 391 c 0
 233 391 172 386 172 357 c 0
 172 317 223 319 268 307 c 0
 393 273 460 238 460 145 c 0
 460 22 349 -9 252 -9 c 0
 189 -9 42 34 42 119 c 0
 42 155 68 180 96 180 c 0
 110 180 125 173 134 164 c 0
 168 131 196 109 260 109 c 0
 301 109 352 116 352 155 c 0
 352 185 269 200 230 208 c 0
EndSplineSet
EndChar

StartChar: t
Encoding: 116 116 90
Width: 413
GlyphClass: 2
Flags: W
HStem: -9 122<255.046 408.745> 377 122<8.25488 98 233 389.745>
VStem: 98 135<130.293 377 499 640.269>
LayerCount: 2
Fore
SplineSet
233 377 m 1
 233 219 l 2
 233 114 256 113 364 113 c 0
 396 113 422 86 422 52 c 0
 422 18 396 -9 364 -9 c 0
 156 -9 98 44 98 214 c 2
 98 377 l 1
 53 377 l 2
 21 377 -5 404 -5 438 c 0
 -5 472 21 499 53 499 c 2
 98 499 l 1
 98 596 l 2
 98 630 126 657 164 657 c 0
 202 657 233 630 233 596 c 2
 233 499 l 1
 345 499 l 2
 377 499 403 472 403 438 c 0
 403 404 377 377 345 377 c 2
 233 377 l 1
EndSplineSet
EndChar

StartChar: u
Encoding: 117 117 91
Width: 604
GlyphClass: 2
Flags: W
HStem: -9 122<205.755 364.932> -7 21G<464 493.5> 489 20G<110.5 141.5 462.5 493.5>
VStem: 70 112<137.731 497.078> 422 112<167.214 497.078>
LayerCount: 2
Fore
SplineSet
258 113 m 0xb8
 384 113 422 170 422 255 c 2
 422 453 l 2
 422 484 447 509 478 509 c 0
 509 509 534 484 534 452 c 2
 534 50 l 2
 534 18 509 -7 478 -7 c 0x78
 450 -7 428 14 422 42 c 1
 379 12 327 -9 258 -9 c 0
 109 -9 70 107 70 250 c 2
 70 452 l 2
 70 484 95 509 126 509 c 0
 157 509 182 484 182 453 c 2
 182 250 l 2
 182 180 184 113 258 113 c 0xb8
EndSplineSet
EndChar

StartChar: v
Encoding: 118 118 96
Width: 546
GlyphClass: 2
Flags: W
HStem: -7 21G<260.5 285.5> 487 20G<64.5 91.5 454.5 481.5>
LayerCount: 2
Fore
SplineSet
30 425 m 2
 26 434 24 443 24 450 c 0
 24 481 49 507 80 507 c 0
 103 507 121 493 131 472 c 2
 273 167 l 1
 415 472 l 2
 425 493 443 507 466 507 c 0
 497 507 522 481 522 450 c 0
 522 443 520 434 516 425 c 2
 329 26 l 2
 320 7 298 -7 273 -7 c 0
 248 -7 226 7 217 26 c 2
 30 425 l 2
EndSplineSet
EndChar

StartChar: w
Encoding: 119 119 97
Width: 881
GlyphClass: 2
Flags: W
HStem: -7 21G<252.5 277 604 628.5> 487 20G<77.5 105.5 775.5 803.5>
LayerCount: 2
Fore
SplineSet
672 28 m 2
 664 8 641 -7 616 -7 c 0
 592 -7 572 6 562 25 c 2
 441 255 l 1
 318 25 l 2
 308 7 289 -7 265 -7 c 0
 240 -7 217 8 209 28 c 2
 40 429 l 2
 38 434 35 441 35 450 c 0
 35 481 62 507 93 507 c 0
 118 507 137 490 146 469 c 2
 272 164 l 1
 387 382 l 2
 397 401 417 414 441 414 c 0
 465 414 484 401 494 382 c 2
 609 164 l 1
 735 469 l 2
 744 490 763 507 788 507 c 0
 819 507 846 482 846 450 c 0
 846 441 844 434 841 428 c 2
 672 28 l 2
EndSplineSet
EndChar

StartChar: x
Encoding: 120 120 98
Width: 572
GlyphClass: 2
Flags: W
HStem: -6 21G<85 110.5 461.5 487> 505 20G<85 110.5 461.5 487>
LayerCount: 2
Fore
SplineSet
102 525 m 0
 119 525 134 516 145 503 c 2
 286 339 l 1
 427 503 l 2
 438 516 453 525 470 525 c 0
 504 525 527 497 527 468 c 0
 527 453 522 440 514 431 c 2
 368 260 l 1
 514 88 l 2
 522 79 527 66 527 51 c 0
 527 22 504 -6 470 -6 c 0
 453 -6 438 3 427 16 c 2
 286 180 l 1
 145 16 l 2
 134 3 119 -6 102 -6 c 0
 68 -6 45 22 45 51 c 0
 45 66 50 79 58 88 c 2
 204 260 l 1
 58 431 l 2
 50 440 45 453 45 468 c 0
 45 497 68 525 102 525 c 0
EndSplineSet
EndChar

StartChar: y
Encoding: 121 121 99
Width: 545
GlyphClass: 2
Flags: W
HStem: 487 20G<63 88 457 483>
LayerCount: 2
Fore
SplineSet
126 477 m 2
 273 191 l 1
 419 477 l 2
 429 496 447 507 467 507 c 0
 499 507 521 477 521 447 c 0
 521 437 519 426 514 417 c 2
 218 -160 l 2
 208 -180 189 -190 170 -190 c 0
 139 -190 116 -162 116 -130 c 0
 116 -120 118 -109 123 -100 c 2
 210 69 l 1
 31 417 l 2
 26 426 24 437 24 447 c 0
 24 481 48 507 78 507 c 0
 98 507 116 496 126 477 c 2
EndSplineSet
EndChar

StartChar: z
Encoding: 122 122 100
Width: 491
GlyphClass: 2
Flags: W
HStem: 0 122<219 458.726> 378 122<65.2739 289>
LayerCount: 2
Fore
SplineSet
53 439 m 0
 53 473 77 500 107 500 c 2
 410 500 l 2
 440 500 464 475 464 444 c 0
 464 432 461 420 453 410 c 2
 219 122 l 1
 417 122 l 2
 447 122 471 95 471 61 c 0
 471 27 447 0 417 0 c 2
 100 0 l 2
 70 0 46 25 46 56 c 0
 46 68 49 80 57 90 c 2
 289 378 l 1
 107 378 l 2
 77 378 53 405 53 439 c 0
EndSplineSet
EndChar

StartChar: zero
Encoding: 48 48 103
Width: 614
Flags: W
HStem: -11 124<236.787 377.213> 607 124<236.787 377.213>
VStem: 38 115<221.979 498.021> 461 115<221.979 498.021>
LayerCount: 2
Fore
SplineSet
307 731 m 0
 509 731 576 530 576 360 c 0
 576 190 509 -11 307 -11 c 0
 105 -11 38 190 38 360 c 0
 38 530 105 731 307 731 c 0
307 607 m 0
 187 607 153 463 153 360 c 0
 153 257 187 113 307 113 c 0
 427 113 461 257 461 360 c 0
 461 463 427 607 307 607 c 0
EndSplineSet
Substitution2: "'onum' Cifras estilo antiguo lookup 31 subtable" zero.tosf
Substitution2: "'frac' Fracciones lookup 24 subtable" zero.numr
Substitution2: "'dnom' Denominadores lookup 22 subtable" zero.dnom
Substitution2: "'numr' Numeradores lookup 21 subtable" zero.numr
Substitution2: "'sups' Supra+AO0A-ndice lookup 20 subtable" uni2070
Substitution2: "'sinf' +AM0A-ndices cient+AO0A-ficos lookup 19 subtable" uni2080
Substitution2: "'subs' Sub+AO0A-ndice lookup 18 subtable" uni2080
AlternateSubs2: "'aalt' Activar todas las variantes lookup 1 subtable" zero.tosf uni2080 zero.dnom zero.numr uni2070
EndChar

StartChar: one
Encoding: 49 49 104
Width: 614
Flags: W
HStem: 0 124<164.848 289 422 542.152> 505 21G<165.5 189> 709 20G<350 375.5>
VStem: 152 403<12.9897 111.01> 289 133<124 562>
LayerCount: 2
Fore
SplineSet
211 515 m 4xe8
 205 511 196 505 182 505 c 4
 149 505 124 531 124 563 c 4
 124 584 135 603 150 613 c 4
 203 649 259 684 321 720 c 4
 331 725 343 729 357 729 c 4
 394 729 422 703 422 670 c 6
 422 124 l 5xe8
 498 124 l 6
 530 124 555 97 555 62 c 4
 555 27 530 0 498 0 c 6
 209 0 l 6
 177 0 152 27 152 62 c 4xf0
 152 97 177 124 209 124 c 6
 289 124 l 5
 289 562 l 5
 262 546 235 531 211 515 c 4xe8
EndSplineSet
Substitution2: "'ss01' Estilo 1 lookup 35 subtable" one.ss01
Substitution2: "'salt' Alternativas estil+AO0A-sticas lookup 34 subtable" one.ss01
Substitution2: "'onum' Cifras estilo antiguo lookup 31 subtable" one.tosf
Substitution2: "'frac' Fracciones lookup 24 subtable" one.numr
Substitution2: "'dnom' Denominadores lookup 22 subtable" one.dnom
Substitution2: "'numr' Numeradores lookup 21 subtable" one.numr
Substitution2: "'sups' Supra+AO0A-ndice lookup 20 subtable" uni00B9
Substitution2: "'sinf' +AM0A-ndices cient+AO0A-ficos lookup 19 subtable" uni2081
Substitution2: "'subs' Sub+AO0A-ndice lookup 18 subtable" uni2081
AlternateSubs2: "'aalt' Activar todas las variantes lookup 1 subtable" one.ss01 one.tosf uni2081 one.dnom one.numr uni00B9
EndChar

StartChar: two
Encoding: 50 50 105
Width: 614
Flags: W
HStem: 0 124<173 555.152> 609 124<220.703 391.408>
VStem: 434 118<474.932 568.854>
LayerCount: 2
Fore
SplineSet
552 519 m 0
 552 393 419 336 335 278 c 0
 272 235 204 194 173 124 c 1
 511 124 l 2
 543 124 568 97 568 62 c 0
 568 27 543 0 511 0 c 2
 103 0 l 2
 71 0 46 26 46 59 c 0
 46 216 160 304 261 368 c 0
 307 397 434 467 434 513 c 0
 434 576 376 609 307 609 c 0
 250 609 186 577 154 529 c 0
 145 515 131 495 103 495 c 0
 65 495 46 530 46 557 c 0
 46 658 211 733 307 733 c 0
 456 733 552 635 552 519 c 0
EndSplineSet
Substitution2: "'onum' Cifras estilo antiguo lookup 31 subtable" two.tosf
Substitution2: "'frac' Fracciones lookup 24 subtable" two.numr
Substitution2: "'dnom' Denominadores lookup 22 subtable" two.dnom
Substitution2: "'numr' Numeradores lookup 21 subtable" two.numr
Substitution2: "'sups' Supra+AO0A-ndice lookup 20 subtable" uni00B2
Substitution2: "'sinf' +AM0A-ndices cient+AO0A-ficos lookup 19 subtable" uni2082
Substitution2: "'subs' Sub+AO0A-ndice lookup 18 subtable" uni2082
AlternateSubs2: "'aalt' Activar todas las variantes lookup 1 subtable" two.tosf uni2082 two.dnom two.numr uni00B2
EndChar

StartChar: three
Encoding: 51 51 106
Width: 614
Flags: W
HStem: -9 124<193.773 411.392> 308 124<178.293 393.989> 607 124<199.229 402.384>
VStem: 433 118<466.27 577.245> 453 115<153.219 265.77>
LayerCount: 2
Fore
SplineSet
204 587 m 0xf0
 172 576 150 539 119 539 c 0
 87 539 61 565 61 601 c 0
 61 685 209 731 288 731 c 0
 447 731 551 678 551 523 c 0xf0
 551 458 523 409 481 374 c 1
 532 337 568 273 568 201 c 0
 568 51 447 -9 288 -9 c 0
 205 -9 46 41 46 142 c 0
 46 179 72 204 104 204 c 0
 151 204 150 161 189 139 c 0
 213 126 249 115 288 115 c 0
 383 115 453 137 453 203 c 0xe8
 453 243 436 271 402 286 c 0
 366 302 301 308 226 308 c 0
 191 308 163 334 163 369 c 0
 163 403 190 432 226 432 c 0
 268 432 304 434 334 437 c 0
 386 443 433 462 433 522 c 0
 433 604 346 607 292 607 c 0
 261 607 230 596 204 587 c 0xf0
EndSplineSet
Substitution2: "'onum' Cifras estilo antiguo lookup 31 subtable" three.tosf
Substitution2: "'frac' Fracciones lookup 24 subtable" three.numr
Substitution2: "'dnom' Denominadores lookup 22 subtable" three.dnom
Substitution2: "'numr' Numeradores lookup 21 subtable" three.numr
Substitution2: "'sups' Supra+AO0A-ndice lookup 20 subtable" uni00B3
Substitution2: "'sinf' +AM0A-ndices cient+AO0A-ficos lookup 19 subtable" uni2083
Substitution2: "'subs' Sub+AO0A-ndice lookup 18 subtable" uni2083
AlternateSubs2: "'aalt' Activar todas las variantes lookup 1 subtable" three.tosf uni2083 three.dnom three.numr uni00B3
EndChar

StartChar: four
Encoding: 52 52 107
Width: 614
Flags: W
HStem: -7 21G<416.5 451.5> 187 124<207 371 496 580.068> 709 20G<424 451.5>
VStem: 371 125<6.72451 187 311 508>
LayerCount: 2
Fore
SplineSet
371 50 m 2
 371 187 l 1
 79 187 l 2
 46 187 21 213 21 247 c 0
 21 262 25 275 33 285 c 2
 385 707 l 2
 396 721 414 729 434 729 c 0
 469 729 496 702 496 669 c 2
 496 311 l 1
 535 311 l 2
 568 311 593 284 593 249 c 0
 593 214 568 187 535 187 c 2
 496 187 l 1
 496 50 l 2
 496 18 469 -7 434 -7 c 0
 399 -7 371 18 371 50 c 2
207 311 m 1
 371 311 l 1
 371 508 l 1
 207 311 l 1
EndSplineSet
Substitution2: "'onum' Cifras estilo antiguo lookup 31 subtable" four.tosf
Substitution2: "'frac' Fracciones lookup 24 subtable" four.numr
Substitution2: "'dnom' Denominadores lookup 22 subtable" four.dnom
Substitution2: "'numr' Numeradores lookup 21 subtable" four.numr
Substitution2: "'sups' Supra+AO0A-ndice lookup 20 subtable" uni2074
Substitution2: "'sinf' +AM0A-ndices cient+AO0A-ficos lookup 19 subtable" uni2084
Substitution2: "'subs' Sub+AO0A-ndice lookup 18 subtable" uni2084
AlternateSubs2: "'aalt' Activar todas las variantes lookup 1 subtable" four.tosf uni2084 four.dnom four.numr uni2074
EndChar

StartChar: five
Encoding: 53 53 108
Width: 614
Flags: W
HStem: -9 124<165.722 361.738> 375 124<187.295 389.415> 598 124<198 499.846>
VStem: 452 114<192.173 320.25>
LayerCount: 2
Fore
SplineSet
566 263 m 0
 566 87 433 -9 246 -9 c 0
 189 -9 48 22 48 104 c 0
 48 139 74 166 106 166 c 0
 122 166 135 159 146 150 c 0
 172 128 212 115 246 115 c 0
 346 115 452 155 452 263 c 0
 452 335 372 375 302 375 c 0
 208 375 148 329 106 329 c 0
 75 329 48 355 48 390 c 0
 48 411 86 672 86 672 c 2
 91 702 115 722 144 722 c 2
 456 722 l 2
 488 722 514 694 514 660 c 0
 514 626 488 598 456 598 c 2
 198 598 l 1
 176 481 l 1
 215 491 258 499 302 499 c 0
 448 499 566 404 566 263 c 0
EndSplineSet
Substitution2: "'onum' Cifras estilo antiguo lookup 31 subtable" five.tosf
Substitution2: "'frac' Fracciones lookup 24 subtable" five.numr
Substitution2: "'dnom' Denominadores lookup 22 subtable" five.dnom
Substitution2: "'numr' Numeradores lookup 21 subtable" five.numr
Substitution2: "'sups' Supra+AO0A-ndice lookup 20 subtable" uni2075
Substitution2: "'sinf' +AM0A-ndices cient+AO0A-ficos lookup 19 subtable" uni2085
Substitution2: "'subs' Sub+AO0A-ndice lookup 18 subtable" uni2085
AlternateSubs2: "'aalt' Activar todas las variantes lookup 1 subtable" five.tosf uni2085 five.dnom five.numr uni2075
EndChar

StartChar: six
Encoding: 54 54 109
Width: 614
Flags: W
HStem: -9 124<228.223 400.071> 356 124<231.378 400.13> 617 115<366.316 466.972>
VStem: 42 126<171.005 296.398> 457 115<166.713 304.365>
LayerCount: 2
Fore
SplineSet
433 617 m 0
 312 589 238 529 196 444 c 1
 229 466 268 480 311 480 c 0
 465 480 572 371 572 235 c 0
 572 98 461 -9 307 -9 c 0
 146 -9 42 119 42 253 c 0
 42 567 210 683 402 731 c 0
 407 732 411 732 417 732 c 0
 456 732 480 705 480 674 c 0
 480 648 461 624 433 617 c 0
307 115 m 0
 395 115 457 159 457 235 c 0
 457 327 379 356 313 356 c 0
 234 356 168 300 168 235 c 0
 168 160 238 115 307 115 c 0
EndSplineSet
Substitution2: "'onum' Cifras estilo antiguo lookup 31 subtable" six.tosf
Substitution2: "'frac' Fracciones lookup 24 subtable" six.numr
Substitution2: "'dnom' Denominadores lookup 22 subtable" six.dnom
Substitution2: "'numr' Numeradores lookup 21 subtable" six.numr
Substitution2: "'sups' Supra+AO0A-ndice lookup 20 subtable" uni2076
Substitution2: "'sinf' +AM0A-ndices cient+AO0A-ficos lookup 19 subtable" uni2086
Substitution2: "'subs' Sub+AO0A-ndice lookup 18 subtable" uni2086
AlternateSubs2: "'aalt' Activar todas las variantes lookup 1 subtable" six.tosf uni2086 six.dnom six.numr uni2076
EndChar

StartChar: seven
Encoding: 55 55 110
Width: 614
Flags: W
HStem: -7 21G<128.5 155> 598 124<58.8481 407>
LayerCount: 2
Fore
SplineSet
103 722 m 2
 511 722 l 2
 544 722 568 695 568 663 c 0
 568 654 567 643 561 633 c 2
 199 23 l 2
 187 3 165 -7 145 -7 c 0
 112 -7 87 19 87 52 c 0
 87 64 92 73 96 80 c 2
 407 598 l 1
 103 598 l 2
 71 598 46 625 46 660 c 0
 46 695 71 722 103 722 c 2
EndSplineSet
Substitution2: "'onum' Cifras estilo antiguo lookup 31 subtable" seven.tosf
Substitution2: "'frac' Fracciones lookup 24 subtable" seven.numr
Substitution2: "'dnom' Denominadores lookup 22 subtable" seven.dnom
Substitution2: "'numr' Numeradores lookup 21 subtable" seven.numr
Substitution2: "'sups' Supra+AO0A-ndice lookup 20 subtable" uni2077
Substitution2: "'sinf' +AM0A-ndices cient+AO0A-ficos lookup 19 subtable" uni2087
Substitution2: "'subs' Sub+AO0A-ndice lookup 18 subtable" uni2087
AlternateSubs2: "'aalt' Activar todas las variantes lookup 1 subtable" seven.tosf uni2087 seven.dnom seven.numr uni2077
EndChar

StartChar: eight
Encoding: 56 56 111
Width: 614
Flags: W
HStem: -9 124<212.797 401.203> 302 127<224.721 390.46> 606 124<224.386 389.902>
VStem: 46 115<158.946 258.363> 70 118<461.881 572.15> 427 118<463.149 571.311> 453 115<158.946 258.363>
LayerCount: 2
Fore
SplineSet
307 730 m 0xe8
 438 730 545 652 545 518 c 0xec
 545 457 522 406 486 370 c 1
 533 333 568 279 568 208 c 0
 568 69 435 -9 307 -9 c 0
 179 -9 46 69 46 208 c 0xf2
 46 279 81 333 128 370 c 1
 92 406 70 457 70 518 c 0
 70 652 176 730 307 730 c 0xe8
307 606 m 0
 232 606 188 569 188 517 c 0
 188 460 239 429 307 429 c 0
 375 429 427 460 427 517 c 0
 427 569 382 606 307 606 c 0
307 302 m 0
 259 302 161 277 161 209 c 0
 161 141 252 115 307 115 c 0
 362 115 453 141 453 209 c 0xf2
 453 277 355 302 307 302 c 0
EndSplineSet
Substitution2: "'onum' Cifras estilo antiguo lookup 31 subtable" eight.tosf
Substitution2: "'frac' Fracciones lookup 24 subtable" eight.numr
Substitution2: "'dnom' Denominadores lookup 22 subtable" eight.dnom
Substitution2: "'numr' Numeradores lookup 21 subtable" eight.numr
Substitution2: "'sups' Supra+AO0A-ndice lookup 20 subtable" uni2078
Substitution2: "'sinf' +AM0A-ndices cient+AO0A-ficos lookup 19 subtable" uni2088
Substitution2: "'subs' Sub+AO0A-ndice lookup 18 subtable" uni2088
AlternateSubs2: "'aalt' Activar todas las variantes lookup 1 subtable" eight.tosf uni2088 eight.dnom eight.numr uni2078
EndChar

StartChar: period
Encoding: 46 46 133
Width: 242
Flags: W
HStem: -20 162<65.5359 177.511>
VStem: 40 162<6.43228 115.568>
LayerCount: 2
Fore
SplineSet
202 61 m 7
 202 16 167 -20 122 -20 c 7
 77 -20 40 16 40 61 c 7
 40 106 77 142 122 142 c 7
 167 142 202 106 202 61 c 7
EndSplineSet
EndChar

StartChar: comma
Encoding: 44 44 134
Width: 242
Flags: W
HStem: -136 278<109.579 148.2>
VStem: 40 162<6.52457 115.021>
LayerCount: 2
Fore
SplineSet
122 142 m 3
 167 142 202 105 202 53 c 3
 202 4 176 -136 106 -136 c 7
 78 -136 60 -113 60 -89 c 7
 60 -53 97 -42 108 -17 c 1
 68 -17 40 23 40 60 c 3
 40 105 77 142 122 142 c 3
EndSplineSet
EndChar

StartChar: exclam
Encoding: 33 33 137
Width: 242
Flags: W
HStem: -20 162<65.5359 177.511>
VStem: 40 162<6.43228 115.568 359.304 716.345>
LayerCount: 2
Fore
SplineSet
202 61 m 7
 202 16 167 -20 122 -20 c 7
 77 -20 40 16 40 61 c 7
 40 106 77 142 122 142 c 7
 167 142 202 106 202 61 c 7
122 745 m 3
 168 745 196 709 196 668 c 3
 196 612 174 262 172 230 c 0
 170 198 154 179 122 179 c 7
 90 179 72 198 70 230 c 0
 68 262 46 612 46 668 c 3
 46 709 76 745 122 745 c 3
EndSplineSet
EndChar

StartChar: question
Encoding: 63 63 139
Width: 479
Flags: W
HStem: -20 134<161.509 261.397> 163 228<163.913 259.406> 623 124<148.24 307.912>
VStem: 144 134<-2.94373 96.9437 183.012 281.451> 348 124<449.272 580.471>
LayerCount: 2
Fore
SplineSet
212 163 m 3
 177 163 150 190 150 225 c 3
 150 260 150 294 150 329 c 3
 150 364 177 391 212 391 c 3
 274 391 348 437 348 516 c 3
 348 572 304 623 252 623 c 3
 166 623 148 606 114 570 c 0
 103 558 86 550 68 550 c 3
 31 550 6 579 6 612 c 3
 6 672 110 747 252 747 c 3
 390 747 472 626 472 516 c 3
 472 390 383 301 274 274 c 1
 274 225 l 2
 274 190 247 163 212 163 c 3
144 47 m 7
 144 85 174 114 212 114 c 7
 250 114 278 85 278 47 c 7
 278 9 250 -20 212 -20 c 7
 174 -20 144 9 144 47 c 7
EndSplineSet
EndChar

StartChar: asterisk
Encoding: 42 42 142
Width: 462
Flags: W
HStem: 406 278<63 151.375 310.625 399>
VStem: 168 126<344.841 437 652 744.159>
LayerCount: 2
Fore
SplineSet
294 391 m 2
 294 356 264 329 230 329 c 3
 195 329 168 356 168 391 c 2
 168 437 l 1
 130 414 l 2
 120 408 109 406 98 406 c 3
 63 406 36 432 36 467 c 3
 36 489 49 510 68 521 c 2
 108 545 l 1
 68 568 l 2
 49 579 36 600 36 622 c 3
 36 656 62 684 98 684 c 3
 111 684 122 679 130 674 c 2
 168 652 l 1
 168 698 l 2
 168 733 195 760 230 760 c 3
 264 760 294 733 294 698 c 2
 294 652 l 1
 332 674 l 2
 340 679 351 684 364 684 c 3
 400 684 426 656 426 622 c 3
 426 600 413 579 394 568 c 2
 354 545 l 1
 394 521 l 2
 413 510 426 489 426 467 c 7
 426 432 399 406 364 406 c 7
 353 406 342 408 332 414 c 2
 294 437 l 1
 294 391 l 2
EndSplineSet
EndChar

StartChar: numbersign
Encoding: 35 35 143
Width: 614
Flags: W
HStem: 170 125<34.8634 142 266 348 472 578.277> 430 125<34.8634 142 266 348 472 578.277>
VStem: 142 124<-9.08716 170 295 430 555 731.087> 348 124<-9.08716 170 295 430 555 731.087>
LayerCount: 2
Fore
SplineSet
204 745 m 3
 239 745 266 718 266 683 c 2
 266 555 l 1
 348 555 l 1
 348 683 l 2
 348 718 375 745 410 745 c 3
 445 745 472 718 472 683 c 2
 472 555 l 1
 530 555 l 2
 564 555 594 528 594 493 c 3
 594 458 565 430 530 430 c 2
 472 430 l 1
 472 295 l 1
 530 295 l 2
 565 295 594 267 594 232 c 3
 594 197 564 170 530 170 c 2
 472 170 l 1
 472 39 l 2
 472 4 445 -23 410 -23 c 7
 375 -23 348 4 348 39 c 2
 348 170 l 1
 266 170 l 1
 266 39 l 2
 266 4 239 -23 204 -23 c 7
 169 -23 142 4 142 39 c 2
 142 170 l 1
 82 170 l 2
 47 170 20 197 20 232 c 3
 20 266 47 295 82 295 c 2
 142 295 l 1
 142 430 l 1
 82 430 l 2
 47 430 20 459 20 493 c 3
 20 528 47 555 82 555 c 2
 142 555 l 1
 142 683 l 2
 142 718 169 745 204 745 c 3
348 430 m 1
 266 430 l 1
 266 295 l 1
 348 295 l 1
 348 430 l 1
EndSplineSet
EndChar

StartChar: slash
Encoding: 47 47 144
Width: 304
Flags: W
VStem: 210 121<719.173 771.056>
LayerCount: 2
Fore
SplineSet
331 723 m 3
 331 714 328 711 327 705 c 2
 94 -38 l 2
 86 -64 62 -81 36 -81 c 7
 -3 -81 -27 -49 -27 -18 c 7
 -27 -9 -24 -6 -23 0 c 2
 210 742 l 2
 218 768 243 785 269 785 c 3
 304 785 331 758 331 723 c 3
EndSplineSet
Substitution2: "'frac' Fracciones lookup 23 subtable" fraction
Substitution2: "'aalt' Activar todas las variantes lookup 0 subtable" fraction
EndChar

StartChar: backslash
Encoding: 92 92 145
Width: 338
Flags: W
LayerCount: 2
Fore
SplineSet
50 784 m 3
 77 784 100 766 108 742 c 2
 344 0 l 2
 346 -6 348 -13 348 -19 c 7
 348 -52 320 -78 288 -78 c 7
 261 -78 238 -60 230 -36 c 2
 -6 706 l 2
 -8 712 -10 719 -10 725 c 3
 -10 758 18 784 50 784 c 3
EndSplineSet
EndChar

StartChar: parenleft
Encoding: 40 40 146
Width: 371
Flags: W
VStem: 23 124<134.153 394.256>
LayerCount: 2
Fore
SplineSet
306 735 m 3
 343 735 368 707 368 673 c 3
 368 653 358 633 341 622 c 0
 214 535 147 397 147 264 c 3
 147 131 214 -5 341 -92 c 0
 358 -103 368 -123 368 -143 c 3
 368 -177 343 -205 306 -205 c 3
 294 -205 282 -201 272 -194 c 0
 111 -85 23 90 23 264 c 3
 23 438 111 615 272 724 c 0
 282 731 294 735 306 735 c 3
EndSplineSet
EndChar

StartChar: braceleft
Encoding: 123 123 148
Width: 395
Flags: W
HStem: -200 121<290.058 369.436> 208 122<38.4224 117.715> 617 121<290.058 369.436>
VStem: 142 122<-56.2011 202.608 335.392 594.201>
CounterMasks: 1 e0
LayerCount: 2
Fore
SplineSet
328 738 m 0
 344 738 358 734 370 725 c 0
 385 714 393 697 393 677 c 0
 393 660 385 644 374 633 c 0
 365 624 353 617 339 617 c 0
 317 617 302 610 292 601 c 0
 268 579 264 533 264 489 c 2
 264 443 l 2
 264 393 262 353 246 319 c 0
 236 299 222 283 202 269 c 1
 222 255 236 239 246 219 c 0
 262 185 264 145 264 95 c 2
 264 49 l 2
 264 5 268 -41 292 -63 c 0
 302 -72 317 -79 339 -79 c 0
 353 -79 365 -86 374 -95 c 0
 385 -106 393 -122 393 -139 c 0
 393 -159 385 -176 370 -187 c 0
 358 -196 344 -200 328 -200 c 0
 206 -200 142 -82 142 34 c 0
 142 108 140 154 134 178 c 0
 130 195 125 201 118 204 c 0
 112 207 101 208 85 208 c 0
 51 208 25 236 25 269 c 0
 25 302 51 330 85 330 c 0
 101 330 112 331 118 334 c 0
 125 337 130 343 134 360 c 0
 140 384 142 430 142 504 c 0
 142 620 206 738 328 738 c 0
EndSplineSet
EndChar

StartChar: bracketleft
Encoding: 91 91 150
Width: 355
Flags: W
HStem: -200 122<217 341.171> 616 122<217 341.171>
VStem: 95 260<-186.171 -91.8291 629.829 724.171> 95 122<-78 616>
LayerCount: 2
Fore
SplineSet
217 616 m 1xd0
 217 -78 l 1xd0
 294 -78 l 2
 328 -78 355 -105 355 -139 c 0
 355 -173 328 -200 294 -200 c 2
 156 -200 l 2
 122 -200 95 -173 95 -139 c 2
 95 677 l 2
 95 711 122 738 156 738 c 2
 294 738 l 2
 328 738 355 711 355 677 c 0xe0
 355 643 328 616 294 616 c 2
 217 616 l 1xd0
EndSplineSet
EndChar

StartChar: hyphen
Encoding: 45 45 152
Width: 614
Flags: W
HStem: 229 124<47.9128 566.087>
LayerCount: 2
Fore
SplineSet
518 353 m 2
 553 353 580 326 580 291 c 7
 580 256 553 229 518 229 c 2
 96 229 l 2
 61 229 34 256 34 291 c 7
 34 326 61 353 96 353 c 2
 518 353 l 2
EndSplineSet
EndChar

StartChar: underscore
Encoding: 95 95 154
Width: 512
Flags: W
HStem: -94 122<12.1072 499.893>
LayerCount: 2
Fore
SplineSet
58 28 m 2
 454 28 l 2
 487 28 515 2 515 -32 c 7
 515 -65 488 -94 454 -94 c 2
 58 -94 l 2
 24 -94 -3 -65 -3 -32 c 7
 -3 2 25 28 58 28 c 2
EndSplineSet
EndChar

StartChar: quotesingle
Encoding: 39 39 156
Width: 236
Flags: W
HStem: 409 336<70.6426 165.566>
VStem: 56 124<424.2 729.8>
LayerCount: 2
Fore
SplineSet
119 745 m 7
 154 745 180 717 180 683 c 2
 180 471 l 2
 180 437 154 409 119 409 c 7
 85 409 56 436 56 471 c 2
 56 683 l 2
 56 718 85 745 119 745 c 7
EndSplineSet
EndChar

StartChar: cent
Encoding: 162 162 159
Width: 614
Flags: W
VStem: 82 122<171.097 328.903> 269 122<-127.171 -18.123 123 377 518.082 632.171>
LayerCount: 2
Fore
SplineSet
330 646 m 7
 364 646 391 619 391 585 c 2
 391 522 l 1
 438 516 532 487 532 427 c 3
 532 393 505 366 471 366 c 3
 440 366 414 397 391 397 c 1
 391 103 l 1
 415 105 444 134 471 134 c 3
 505 134 532 107 532 73 c 3
 532 12 440 -14 391 -22 c 1
 391 -80 l 2
 391 -114 364 -141 330 -141 c 7
 296 -141 269 -114 269 -80 c 2
 269 -12 l 1
 160 24 82 129 82 250 c 3
 82 371 160 476 269 512 c 1
 269 585 l 2
 269 619 296 646 330 646 c 7
269 377 m 1
 230 350 204 303 204 250 c 3
 204 197 230 150 269 123 c 1
 269 377 l 1
EndSplineSet
EndChar

StartChar: dollar
Encoding: 36 36 160
Width: 678
Flags: W
HStem: 3 120<206.322 271 407 470.653> 640 115<223.203 271 407 464.168>
VStem: 60 127<510.084 606.721> 271 136<-109.715 5.69368 123 308 473 639 756.066 831.715> 510 124<158.934 256.415>
LayerCount: 2
Fore
SplineSet
271 787 m 2
 271 821 301 847 339 847 c 3
 377 847 407 821 407 787 c 2
 407 759 l 1
 472 752 536 728 604 666 c 0
 616 655 623 638 623 622 c 3
 623 587 595 562 561 562 c 3
 546 562 530 566 517 578 c 0
 484 608 441 637 407 639 c 1
 407 437 l 1
 514 409 634 334 634 219 c 3
 634 84 522 19 407 5 c 1
 407 -65 l 2
 407 -99 377 -125 339 -125 c 3
 301 -125 271 -99 271 -65 c 2
 271 3 l 1
 203 11 131 35 63 98 c 0
 50 110 44 126 44 142 c 7
 44 178 73 202 106 202 c 7
 122 202 137 195 149 185 c 0
 196 143 233 129 271 123 c 1
 271 341 l 1
 155 369 60 445 60 549 c 3
 60 666 154 738 271 755 c 1
 271 787 l 2
187 555 m 3
 187 510 236 487 271 473 c 1
 271 640 l 1
 222 628 187 599 187 555 c 3
407 118 m 1
 463 127 510 160 510 214 c 3
 510 255 447 292 407 308 c 1
 407 118 l 1
EndSplineSet
EndChar

StartChar: Euro
Encoding: 8364 8364 161
Width: 600
Flags: W
HStem: -25 122<323.281 457.513> 220 122<12.7454 95 242 393.255> 380 122<12.7454 95 242 393.255> 625 122<320.922 457.117>
LayerCount: 2
Fore
SplineSet
95 380 m 1
 59 380 l 2
 26 380 -1 407 -1 441 c 0
 -1 475 26 502 59 502 c 2
 115 502 l 1
 152 629 251 747 389 747 c 0
 464 747 534 709 586 647 c 0
 595 636 601 623 601 608 c 0
 601 572 572 547 541 547 c 0
 523 547 508 554 496 568 c 0
 464 607 422 625 389 625 c 0
 322 625 270 569 242 502 c 1
 347 502 l 2
 380 502 407 475 407 441 c 0
 407 407 380 380 347 380 c 2
 215 380 l 1
 215 374 214 367 214 361 c 0
 214 355 215 348 215 342 c 1
 347 342 l 2
 380 342 407 315 407 281 c 0
 407 247 380 220 347 220 c 2
 242 220 l 1
 270 154 324 97 389 97 c 0
 425 97 464 115 496 154 c 0
 508 168 523 175 541 175 c 0
 575 175 601 145 601 114 c 0
 601 99 595 86 586 75 c 0
 534 13 464 -25 389 -25 c 0
 245 -25 152 98 115 220 c 1
 59 220 l 2
 26 220 -1 247 -1 281 c 0
 -1 315 26 342 59 342 c 2
 95 342 l 1
 95 361 l 1
 95 380 l 1
EndSplineSet
EndChar

StartChar: sterling
Encoding: 163 163 162
Width: 614
Flags: W
HStem: -16 122<32.3052 139.594 270 581.764> 328 122<45.4224 112 276 434.578> 625 122<261.826 405.93>
VStem: 32 416<341.829 436.171> 106 122<450.913 586.708> 170 124<136.813 326.126>
LayerCount: 2
Fore
SplineSet
322 747 m 3xe8
 476 747 540 659 540 614 c 3
 540 576 511 553 480 553 c 3
 460 553 441 562 430 578 c 0
 406 613 378 625 322 625 c 3
 250 625 228 562 228 506 c 3xe8
 228 488 231 470 236 450 c 1
 388 450 l 2
 422 450 448 423 448 389 c 3xf0
 448 355 422 328 388 328 c 2
 276 328 l 1
 286 291 294 253 294 216 c 3
 294 175 286 138 270 106 c 1
 534 106 l 2
 568 106 596 79 596 45 c 7
 596 11 568 -16 534 -16 c 2
 80 -16 l 2
 46 -16 18 11 18 45 c 3
 18 76 45 106 74 106 c 3
 146 106 170 156 170 212 c 3xe4
 170 245 164 285 150 328 c 1
 92 328 l 2
 58 328 32 355 32 389 c 3xf0
 32 423 58 450 92 450 c 2
 112 450 l 1
 109 469 106 488 106 506 c 3
 106 643 198 747 322 747 c 3xe8
EndSplineSet
EndChar

StartChar: plus
Encoding: 43 43 163
Width: 614
Flags: W
HStem: 229 124<47.9128 245 369 566.087>
VStem: 245 124<31.9128 229 353 550.087>
LayerCount: 2
Fore
SplineSet
307 564 m 7
 342 564 369 537 369 502 c 2
 369 353 l 1
 518 353 l 2
 553 353 580 326 580 291 c 3
 580 256 553 229 518 229 c 2
 369 229 l 1
 369 80 l 2
 369 45 342 18 307 18 c 7
 272 18 245 45 245 80 c 2
 245 229 l 1
 96 229 l 2
 61 229 34 256 34 291 c 3
 34 326 61 353 96 353 c 2
 245 353 l 1
 245 502 l 2
 245 537 272 564 307 564 c 7
EndSplineSet
EndChar

StartChar: multiply
Encoding: 215 215 164
Width: 600
Flags: W
LayerCount: 2
Fore
SplineSet
111 543 m 3
 128 543 142 536 153 525 c 2
 300 380 l 1
 447 525 l 2
 458 536 472 543 489 543 c 3
 524 543 550 514 550 482 c 3
 550 466 543 450 532 439 c 2
 387 293 l 1
 532 147 l 2
 543 136 550 120 550 104 c 3
 550 72 524 43 489 43 c 3
 472 43 458 50 447 61 c 2
 300 206 l 1
 153 61 l 2
 142 50 128 43 111 43 c 3
 76 43 50 72 50 104 c 3
 50 120 57 136 68 147 c 2
 213 293 l 1
 68 439 l 2
 57 450 50 466 50 482 c 3
 50 514 76 543 111 543 c 3
EndSplineSet
EndChar

StartChar: less
Encoding: 60 60 168
Width: 614
Flags: W
LayerCount: 2
Fore
SplineSet
33 295 m 7
 33 320 48 341 69 351 c 2
 493 552 l 2
 502 557 512 558 520 558 c 3
 556 558 581 529 581 496 c 3
 581 472 567 450 546 440 c 2
 240 295 l 1
 546 151 l 2
 567 141 581 118 581 94 c 3
 581 61 556 32 520 32 c 3
 512 32 502 33 493 38 c 2
 69 238 l 2
 48 248 33 270 33 295 c 7
EndSplineSet
EndChar

StartChar: asciitilde
Encoding: 126 126 170
Width: 614
Flags: W
HStem: 201 102<358.692 461.653> 285 102<152.347 255.308>
LayerCount: 2
Fore
SplineSet
183 387 m 0x40
 239 387 285 362 317 346 c 0
 352 328 399 303 431 303 c 0
 443 303 460 317 466 333 c 0
 473 352 491 367 514 367 c 0
 542 367 565 343 565 316 c 0
 565 291 551 266 531 246 c 0
 506 221 470 201 431 201 c 0x80
 375 201 329 226 297 242 c 0
 262 260 215 285 183 285 c 0
 171 285 154 271 148 255 c 0
 141 236 123 221 100 221 c 0
 72 221 49 245 49 272 c 0
 49 297 63 322 83 342 c 0
 108 367 144 387 183 387 c 0x40
EndSplineSet
EndChar

StartChar: logicalnot
Encoding: 172 172 171
Width: 614
Flags: W
HStem: 124 327<469.2 561.66> 329 122<51.8291 454>
VStem: 454 122<139.2 329>
LayerCount: 2
Fore
SplineSet
99 451 m 2x60
 516 451 l 2
 550 451 576 423 576 390 c 2
 576 186 l 2
 576 153 551 124 516 124 c 7xa0
 482 124 454 152 454 186 c 2
 454 329 l 1
 99 329 l 2
 65 329 38 356 38 390 c 3
 38 424 65 451 99 451 c 2x60
EndSplineSet
EndChar

StartChar: asciicircum
Encoding: 94 94 172
Width: 614
Flags: W
LayerCount: 2
Fore
SplineSet
307 666 m 3
 328 666 348 656 360 635 c 2
 560 275 l 2
 565 265 568 255 568 245 c 7
 568 211 541 184 507 184 c 7
 484 184 464 196 454 215 c 2
 307 479 l 1
 160 215 l 2
 150 196 130 184 107 184 c 3
 73 184 46 211 46 245 c 3
 46 255 49 265 54 275 c 2
 254 635 l 2
 266 656 286 666 307 666 c 3
EndSplineSet
EndChar

StartChar: percent
Encoding: 37 37 173
Width: 1023
Flags: W
HStem: -20 124<731.691 831.423> 260 125<731.691 831.423> 335 124<192.892 291.544> 617 124<192.347 292.078>
VStem: 51 124<476.482 600.596> 308 131<475.861 601.32> 584 131<120.404 243.642> 848 124<119.68 244.366>
LayerCount: 2
Fore
SplineSet
782 -20 m 3xdf
 658 -20 584 68 584 182 c 3
 584 296 658 385 782 385 c 3
 903 385 972 296 972 182 c 3
 972 68 903 -20 782 -20 c 3xdf
848 182 m 3
 848 212 840 260 782 260 c 3
 724 260 715 211 715 182 c 3
 715 153 724 104 782 104 c 3
 840 104 848 152 848 182 c 3
242 335 m 3xbf
 121 335 51 425 51 539 c 3
 51 653 121 741 242 741 c 3
 366 741 439 653 439 539 c 3
 439 425 366 335 242 335 c 3xbf
308 539 m 3
 308 569 300 617 242 617 c 3
 184 617 175 568 175 539 c 3
 175 509 184 459 242 459 c 3
 300 459 308 509 308 539 c 3
731 718 m 2
 743 733 762 741 783 741 c 3
 821 741 848 713 848 682 c 3
 848 669 844 656 835 645 c 2
 292 2 l 2
 279 -14 259 -20 240 -20 c 7
 202 -20 175 7 175 39 c 7
 175 52 179 65 188 75 c 2
 731 718 l 2
EndSplineSet
EndChar

StartChar: at
Encoding: 64 64 174
Width: 970
Flags: W
HStem: -183 124<360.737 638.773> 43 107<396.524 514.623> 45 125<690.905 761.932> 421 103<446.998 563.538> 623 124<368.267 643.972>
VStem: 43 125<143.86 419.002> 253 122<171.026 340.81> 585 105<229.182 344.351> 803 124<222.252 476.658>
LayerCount: 2
Fore
SplineSet
722 45 m 3xbf80
 653 45 614 68 590 116 c 1
 549 63 489 43 431 43 c 3xdf80
 307 43 253 163 253 260 c 3
 253 430 363 524 504 524 c 3
 542 524 582 507 608 481 c 1
 618 507 638 519 670 519 c 3
 705 519 727 488 727 458 c 3
 727 434 690 207 690 188 c 7
 690 171 710 170 721 170 c 7
 792 170 803 296 803 358 c 3
 803 541 677 623 516 623 c 3
 272 623 168 483 168 271 c 3
 168 49 324 -59 468 -59 c 3
 591 -59 634 -50 706 2 c 0
 717 10 728 14 741 14 c 3
 778 14 803 -14 803 -48 c 3
 803 -67 794 -87 777 -99 c 0
 680 -169 591 -183 468 -183 c 3
 260 -183 43 -14 43 271 c 3
 43 594 239 747 516 747 c 3
 776 747 927 581 927 358 c 3
 927 191 865 45 722 45 c 3xbf80
443 150 m 3
 538 150 585 242 585 323 c 3
 585 384 562 421 509 421 c 3
 427 421 375 323 375 255 c 3
 375 221 380 150 443 150 c 3
EndSplineSet
EndChar

StartChar: ampersand
Encoding: 38 38 175
Width: 724
Flags: W
HStem: -23 124<207.189 383.576> 625 124<271.023 390.08>
VStem: 36 124<145.23 260.34> 134 124<512.321 610.678> 400 124<532.788 613.077> 524 120<275.616 350.889>
LayerCount: 2
Fore
SplineSet
36 209 m 3xe4
 36 305 113 379 188 424 c 1
 156 472 134 519 134 572 c 3
 134 695 231 749 342 749 c 3
 435 749 524 673 524 584 c 3xd8
 524 489 455 416 382 374 c 1
 418 333 456 292 492 255 c 1
 504 279 514 303 524 327 c 0
 534 349 556 365 582 365 c 3
 623 365 644 332 644 303 c 3
 644 294 643 285 640 279 c 0
 625 243 606 204 584 165 c 1
 620 131 651 103 666 91 c 0
 680 80 688 62 688 44 c 7
 688 8 658 -18 626 -18 c 7
 611 -18 597 -13 586 -3 c 0
 570 11 542 35 510 65 c 1
 457 14 383 -23 290 -23 c 3
 145 -23 36 66 36 209 c 3xe4
304 474 m 1
 345 492 400 540 400 584 c 3
 400 608 360 625 340 625 c 3
 300 625 258 613 258 572 c 3
 258 544 284 504 304 474 c 1
290 101 m 3
 352 101 390 120 422 151 c 1
 365 207 310 263 262 322 c 1
 223 295 160 260 160 209 c 3xe0
 160 130 231 101 290 101 c 3
EndSplineSet
EndChar

StartChar: degree
Encoding: 176 176 176
Width: 384
Flags: W
HStem: 406 102<141.209 242.791> 646 102<141.209 242.791>
VStem: 20 102<528.541 625.459> 262 102<528.541 625.459>
LayerCount: 2
Fore
SplineSet
122 577 m 0
 122 539 154 508 192 508 c 0
 230 508 262 539 262 577 c 0
 262 615 230 646 192 646 c 0
 154 646 122 615 122 577 c 0
20 577 m 0
 20 672 97 748 192 748 c 0
 287 748 364 672 364 577 c 0
 364 482 287 406 192 406 c 0
 97 406 20 482 20 577 c 0
EndSplineSet
EndChar

StartChar: bar
Encoding: 124 124 177
Width: 281
Flags: W
VStem: 80 122<-194.23 730.23>
LayerCount: 2
Fore
SplineSet
202 684 m 2
 202 -148 l 2
 202 -182 174 -209 140 -209 c 7
 106 -209 80 -182 80 -148 c 2
 80 684 l 2
 80 718 106 745 140 745 c 7
 174 745 202 718 202 684 c 2
EndSplineSet
EndChar

StartChar: brokenbar
Encoding: 166 166 178
Width: 281
Flags: W
VStem: 80 122<-192.23 210.23 327.77 730.23>
LayerCount: 2
Fore
SplineSet
202 164 m 2
 202 -146 l 2
 202 -180 174 -207 140 -207 c 7
 106 -207 80 -180 80 -146 c 2
 80 164 l 2
 80 198 106 225 140 225 c 7
 174 225 202 198 202 164 c 2
202 684 m 2
 202 374 l 2
 202 340 174 313 140 313 c 7
 106 313 80 340 80 374 c 2
 80 684 l 2
 80 718 106 745 140 745 c 7
 174 745 202 718 202 684 c 2
EndSplineSet
EndChar

StartChar: dieresis
Encoding: 168 168 179
Width: 512
Flags: W
HStem: 598 141<112.682 214.794 297.206 399.318>
VStem: 93 141<617.206 719.318> 278 141<617.206 719.318>
LayerCount: 2
Fore
SplineSet
278 668 m 0
 278 707 309 739 348 739 c 0
 387 739 419 707 419 668 c 0
 419 629 387 598 348 598 c 0
 309 598 278 629 278 668 c 0
93 668 m 0
 93 707 125 739 164 739 c 0
 203 739 234 707 234 668 c 0
 234 629 203 598 164 598 c 0
 125 598 93 629 93 668 c 0
EndSplineSet
EndChar

StartChar: grave
Encoding: 96 96 180
Width: 512
Flags: W
HStem: 541 263<152 232>
VStem: 91 202
LayerCount: 2
Fore
SplineSet
91 743 m 3
 91 777 118 804 152 804 c 3
 175 804 194 792 205 773 c 2
 285 632 l 2
 290 623 293 613 293 602 c 7
 293 568 266 541 232 541 c 7
 209 541 190 553 179 572 c 2
 99 713 l 2
 94 722 91 732 91 743 c 3
EndSplineSet
EndChar

StartChar: acute
Encoding: 180 180 181
Width: 512
Flags: W
HStem: 540 264<279 360>
VStem: 218 203
LayerCount: 2
Fore
SplineSet
421 743 m 7
 421 732 418 722 413 713 c 2
 332 571 l 2
 321 552 302 540 279 540 c 3
 245 540 218 567 218 601 c 3
 218 612 221 622 226 632 c 2
 307 774 l 2
 318 793 338 804 360 804 c 7
 394 804 421 777 421 743 c 7
EndSplineSet
EndChar

StartChar: circumflex
Encoding: 710 710 182
Width: 512
Flags: W
HStem: 541 276
VStem: 96 320<564 602>
LayerCount: 2
Fore
SplineSet
96 592 m 3
 96 602 99 611 103 618 c 2
 212 792 l 2
 221 806 237 817 256 817 c 3
 275 817 291 806 300 792 c 2
 409 618 l 2
 413 611 416 602 416 592 c 7
 416 564 393 541 365 541 c 7
 347 541 330 550 321 565 c 2
 256 670 l 1
 191 565 l 2
 182 550 165 541 147 541 c 3
 119 541 96 564 96 592 c 3
EndSplineSet
EndChar

StartChar: macron
Encoding: 175 175 184
Width: 512
Flags: W
HStem: 608 122<95.1072 416.893>
VStem: 80 352<621.422 715.441>
LayerCount: 2
Fore
SplineSet
141 730 m 2
 371 730 l 2
 405 730 432 701 432 668 c 7
 432 634 404 608 371 608 c 2
 141 608 l 2
 108 608 80 634 80 668 c 7
 80 701 107 730 141 730 c 2
EndSplineSet
EndChar

StartChar: cedilla
Encoding: 184 184 185
Width: 512
Flags: W
HStem: -215 92<173.099 299.304> -109 165<211.344 290.143>
VStem: 189 108<-12.6711 34.0625> 205 92<-18.8799 49.1096>
LayerCount: 2
Fore
SplineSet
235 -109 m 0xe0
 210 -109 189 -88 189 -63 c 3xe0
 189 -52 199 -8 205 19 c 0xd0
 210 41 230 56 251 56 c 3
 276 56 297 36 297 10 c 3
 297 2 295 -6 293 -13 c 1
 339 -19 392 -48 392 -112 c 7
 392 -181 324 -215 265 -215 c 7
 219 -215 142 -212 142 -158 c 3
 142 -133 163 -112 188 -112 c 3
 195 -112 201 -113 207 -116 c 0
 219 -121 233 -123 265 -123 c 3
 272 -123 300 -116 300 -111 c 3
 300 -105 277 -104 271 -104 c 3
 252 -104 251 -109 235 -109 c 0xe0
EndSplineSet
EndChar

StartChar: notequal
Encoding: 8800 8800 187
Width: 614
Flags: W
HStem: 130 122<48.8291 191 357 565.171> 341 122<48.8291 257 422 565.171> 709 20G<411.5 441>
VStem: 129 119<-121.159 -70.1648> 366 119<664.062 714.88>
LayerCount: 2
Fore
SplineSet
424 729 m 0
 458 729 485 702 485 668 c 0
 485 660 482 655 481 650 c 2
 422 463 l 1
 518 463 l 2
 552 463 579 436 579 402 c 0
 579 368 552 341 518 341 c 2
 385 341 l 1
 357 252 l 1
 518 252 l 2
 552 252 579 225 579 191 c 0
 579 157 552 130 518 130 c 2
 318 130 l 1
 248 -93 l 2
 240 -118 217 -135 191 -135 c 0
 153 -135 129 -105 129 -74 c 0
 129 -66 132 -61 133 -56 c 2
 191 130 l 1
 96 130 l 2
 62 130 35 157 35 191 c 0
 35 225 62 252 96 252 c 2
 229 252 l 1
 257 341 l 1
 96 341 l 2
 62 341 35 368 35 402 c 0
 35 436 62 463 96 463 c 2
 296 463 l 1
 366 687 l 2
 374 713 399 729 424 729 c 0
EndSplineSet
EndChar
